<svg width="46" height="50" fill="none" xmlns="http://www.w3.org/2000/svg"><path d="M44.7 16.652a1.45 1.45 0 00-1.119-.527H32.833l-5.97 7.335a1.451 1.451 0 01-2.25 0l-5.972-7.335H9.7L8.494 9.318a1.45 1.45 0 00-1.428-1.196H1.49a1.45 1.45 0 000 2.9h4.362c1.35 7.626.294 2 4.206 22.275v5.166a6.981 6.981 0 012.9 0v-3.854h27.618A1.45 1.45 0 0042 33.434l3.006-15.584a1.45 1.45 0 00-.305-1.198zM18.316 43.818a6.93 6.93 0 010 2.9h10.166a6.98 6.98 0 010-2.9H18.317zM11.51 41.21a4.062 4.062 0 00-4.057 4.058 4.062 4.062 0 004.057 4.058 4.062 4.062 0 004.057-4.058 4.062 4.062 0 00-4.057-4.057zm24.413 8.066a4.056 4.056 0 10-1.298-8.009 4.056 4.056 0 001.298 8.009z" fill="#41C59F"/><path d="M25.737 20.247l7.28-8.943a.483.483 0 00-.374-.789h-1.774c-.8 0-1.45-.648-1.45-1.45V.483A.484.484 0 0028.936 0H22.54a.484.484 0 00-.483.483v8.582c0 .802-.65 1.45-1.45 1.45h-1.775a.483.483 0 00-.375.79l7.28 8.942z" fill="#41C59F"/></svg>