<svg width="30" height="17" fill="none" xmlns="http://www.w3.org/2000/svg"><path opacity=".502" d="M.017 8.68c.009.04.022.076.035.114.006.018.01.038.017.056.017.042.039.08.062.12.007.011.012.025.02.037.033.05.07.096.111.138l7.446 7.588a.882.882 0 001.264 0 .923.923 0 000-1.288L3.052 9.41h26.054A.903.903 0 0030 8.5c0-.504-.4-.912-.894-.912H3.052l5.921-6.034a.923.923 0 000-1.288.883.883 0 00-1.265 0L.262 7.855a.923.923 0 00-.111.139c-.009.012-.013.025-.02.037a.866.866 0 00-.062.12c-.008.017-.011.038-.017.056-.013.037-.026.074-.035.113a.906.906 0 000 .36z" fill="#000"/></svg>