<svg width="51" height="36" fill="none" xmlns="http://www.w3.org/2000/svg"><path fill-rule="evenodd" clip-rule="evenodd" d="M1.045 24.202h26.342a.718.718 0 00.716-.716V2.147A2.147 2.147 0 0025.955 0H2.477A2.147 2.147 0 00.329 2.147v21.339c0 .394.322.716.716.716zm5.308-14.38c0-.49.398-.888.889-.888h7.027V6.43c0-.791.957-1.188 1.517-.628l6.056 6.059a.888.888 0 010 1.256l-6.056 6.057c-.56.56-1.517.164-1.517-.628v-2.504H7.242a.889.889 0 01-.889-.889v-5.33zM.716 29.95h8.718a5.906 5.906 0 011.976-3.608H.716a.718.718 0 00-.716.716v2.176c0 .394.322.716.716.716zm49.449-3.608h-1.74v-9.728a5.732 5.732 0 00-.98-3.2l-4.36-6.456a5.73 5.73 0 00-4.746-2.52h-6.757c-.795 0-1.432.644-1.432 1.432v20.472H19.084a5.88 5.88 0 011.983 3.608h11.667c.416-2.842 2.864-5.04 5.82-5.04 2.956 0 5.397 2.198 5.812 5.04h5.798a.718.718 0 00.716-.716v-2.176a.718.718 0 00-.716-.716zm-16.05-11.64h8.92c.58 0 .916-.65.587-1.123l-3.486-4.953a.726.726 0 00-.587-.301h-5.433a.718.718 0 00-.716.716v4.946c0 .4.322.716.716.716zm-18.868 11.64a4.459 4.459 0 00-4.453 4.46 4.453 4.453 0 008.905 0c0-2.463-1.99-4.46-4.452-4.46zm-2.226 4.46c0 1.224.995 2.226 2.226 2.226a2.229 2.229 0 002.226-2.226 2.224 2.224 0 00-2.226-2.226 2.224 2.224 0 00-2.226 2.226zm25.533-4.46a4.454 4.454 0 00-4.453 4.46 4.453 4.453 0 008.905 0 4.458 4.458 0 00-4.452-4.46zm-2.226 4.46c0 1.224.995 2.226 2.226 2.226a2.229 2.229 0 002.226-2.226 2.224 2.224 0 00-2.226-2.226 2.224 2.224 0 00-2.226 2.226z" fill="#41C59F"/></svg>