<svg width="52" height="46" fill="none" xmlns="http://www.w3.org/2000/svg"><path d="M49.59 6.756L18.012.073a2.49 2.49 0 00-2.943 1.916l-.6 3.855 36.435 7.71.6-3.855a2.49 2.49 0 00-1.914-2.943z" fill="#41C59F"/><path fill-rule="evenodd" clip-rule="evenodd" d="M33.227 12.627a2.514 2.514 0 013.085 1.745l.543 1.955 12.681 2.684-2.227 10.526a2.49 2.49 0 01-2.943 1.915l-3.52-.745.939 3.386a2.514 2.514 0 01-1.745 3.084L8.648 45.89a2.514 2.514 0 01-3.085-1.745L.091 24.424a2.513 2.513 0 011.744-3.085l9.711-2.695 1.555-7.344 14.132 2.991 5.994-1.664zm7.487 8.099l-.776 3.67a1.023 1.023 0 00.788 1.21l3.669.777a1.025 1.025 0 001.21-.788l.777-3.67a1.025 1.025 0 00-.788-1.21l-3.67-.777a1.025 1.025 0 00-1.21.788zM2.382 23.307l8.687-2.41 20.498-5.688 2.206-.613a.474.474 0 01.57.322l.258.933.812 2.924L3.13 27.734l-1.07-3.856a.47.47 0 01.322-.57zM39.77 34.99a.456.456 0 00.046-.35l-1.223-4.409-1.97-7.094-32.283 8.96 3.192 11.502a.474.474 0 00.57.322l31.392-8.711a.451.451 0 00.276-.22z" fill="#41C59F"/><path d="M13.176 35.425a1.025 1.025 0 00-1.258-.71l-3.666 1.017c-.541.15-.862.716-.71 1.258l1.016 3.665c.151.542.716.861 1.258.71l3.666-1.016c.542-.15.862-.716.711-1.258l-1.017-3.666z" fill="#41C59F"/></svg>