<svg width="52" height="40" fill="none" xmlns="http://www.w3.org/2000/svg"><path fill-rule="evenodd" clip-rule="evenodd" d="M18.587.045h5.066A3.336 3.336 0 0126.99 3.38v11.122a3.335 3.335 0 01-3.336 3.336h-12.53a3.335 3.335 0 01-3.334-3.336V3.38A3.335 3.335 0 0111.124.045h5.097v2.51h2.366V.045zm.275 14.572V9.716c2.086 0 2.106.015 2.106.015l-3.573-4.26-3.586 4.245h2.093v4.9h2.96zM23.22 39.04H3.818a3.79 3.79 0 01-2.04-.6l11.462-7.098L24.963 38.6a3.776 3.776 0 01-1.743.44zM0 35.222c0 .537.113 1.047.313 1.51l10.816-6.697L.267 23.309A3.792 3.792 0 000 24.689v10.533zm13.24-6.494L1.65 21.55a3.795 3.795 0 012.169-.68H23.22c.687 0 1.323.196 1.88.514l-11.86 7.343zm13.409-5.689L15.35 30.035l11.233 6.955c.28-.53.453-1.126.453-1.768V24.688a3.78 3.78 0 00-.388-1.649zM47.264.314h-5.842V5.9h-2.73V.314h-5.877a3.847 3.847 0 00-3.847 3.847v30.98a3.847 3.847 0 003.847 3.847h14.45a3.847 3.847 0 003.846-3.847V4.161A3.847 3.847 0 0047.264.314zm-7.997 19.04l-2.71-3.232-2.712 3.232h1.957v4.201h1.508v-4.201h1.957zm6.177 8.152H34.635V26.14h10.81v1.365zm-1.167-3.95v-4.202h1.957l-2.711-3.232-2.711 3.232h1.957v4.201h1.508z" fill="#41C59F"/></svg>