<svg width="52" height="38" fill="none" xmlns="http://www.w3.org/2000/svg"><path fill-rule="evenodd" clip-rule="evenodd" d="M51.96 4.727v15.729s-3.366.663-4.06.75c-.094.012-.215.036-.36.063-.912.175-2.718.52-4.078-.787-2.428-2.328-11.055-10.907-11.055-10.907s-1.487-1.46-3.875-.198c-2.193 1.156-5.443 2.85-6.8 3.508-2.566 1.366-4.693-.8-4.693-2.451 0-1.28.799-2.15 1.94-2.789C22.076 5.77 28.6 2.107 31.317.663c1.652-.878 2.842-.954 5.11.957a660.578 660.578 0 015.277 4.49s.811.676 2.104.403a896.012 896.012 0 008.153-1.786zM17.623 31.378c.418-1.073.278-2.274-.523-3.097-.72-.737-1.77-.931-2.772-.701.28-.994.125-2.052-.598-2.798-.722-.735-1.77-.933-2.773-.702.278-.992.124-2.05-.6-2.794-1.134-1.163-3.095-1.113-4.383.115-1.281 1.23-2.102 3.458-.959 4.769.93 1.062 1.972.734 2.866.452.205-.064.402-.127.588-.169a6.047 6.047 0 01-.244.663c-.315.763-.637 1.544.16 2.551.84 1.065 1.95.728 2.875.447.204-.062.398-.12.579-.162a7 7 0 01-.229.642c-.31.791-.636 1.62.14 2.567.922 1.118 2.39.65 3.457.308.086-.027.168-.054.248-.078-.072.184-.157.37-.244.56-.418.91-.865 1.884.082 2.953 1.142 1.3 3.78.699 5.07-.53 1.285-1.23 1.408-3.18.278-4.346-.78-.8-1.945-.986-3.018-.65zm16.58-15.124l6.94 6.941.022.013a.4.4 0 01.018.01 2.295 2.295 0 010 3.233 2.29 2.29 0 01-3.228 0l-.003-.003c-.104-.107-3.748-3.852-4.044-3.555-.24.244 2.244 2.93 3.165 3.926.205.222.332.36.335.368.743.893.725 2.218-.113 3.056-.86.861-2.24.867-3.135.061l-.144-.131c-.82-.755-4.874-4.484-5.151-4.208-.306.305 3.703 3.876 3.703 3.876.067.07.25.243.293.285.887.891.89 2.34 0 3.228a2.29 2.29 0 01-3.228 0l-.03-.03c-.373-.386-4.099-4.243-4.342-3.998-.255.257 2.918 3.577 2.95 3.608a2.293 2.293 0 010 3.23c-.891.89-2.342.89-3.23 0a39.386 39.386 0 01-1.2-1.293c-.002-.004-.006-.004-.008-.004.259-1.62-.169-3.299-1.374-4.537a5.094 5.094 0 00-2.22-1.33 5.084 5.084 0 00-1.314-2.41 5.042 5.042 0 00-2.128-1.3 4.95 4.95 0 00-1.243-2.2 5.02 5.02 0 00-2.128-1.297 4.96 4.96 0 00-1.24-2.204c-2.006-2.065-5.66-2.043-7.863.056a5.918 5.918 0 00-1.456 2.299C1.48 21.4 0 20.973 0 20.973V2.975l5.178 1.803c2.686 1.087 4.571-.12 4.571-.12S16.392.306 19.572.306c3.18 0 4.632 1.84 4.632 1.84S19.44 4.68 17.368 6.113c-1.473.92-2.46 2.538-2.46 4.398 0 2.867 2.328 5.173 5.198 5.192.501.003 1.57-.238 3.054-1.016 1.35-.636 3.146-1.468 4.54-2.08 1.986-.871 3.493.63 3.493.63l3.01 3.017z" fill="#41C59F"/></svg>