<svg width="44" height="50" fill="none" xmlns="http://www.w3.org/2000/svg"><path d="M10.068 20.133a4.319 4.319 0 00-4.314 4.314v11.696a4.319 4.319 0 004.314 4.314 4.319 4.319 0 004.314-4.314V24.447a4.319 4.319 0 00-4.314-4.314zm-7.192 4.314c0-.415.055-.816.123-1.211C1.265 23.796 0 25.406 0 27.323v5.944c0 1.917 1.265 3.527 2.999 4.087a7.135 7.135 0 01-.123-1.211V24.447zm30.2-4.314a4.319 4.319 0 00-4.314 4.314v11.696a4.319 4.319 0 004.314 4.314c.433 0 .842-.083 1.236-.202-.535 1.774-2.165 3.078-4.112 3.078h-4.579c-.595-1.67-2.177-2.876-4.049-2.876a4.319 4.319 0 00-4.314 4.314 4.319 4.319 0 004.314 4.314c1.872 0 3.454-1.206 4.05-2.876H30.2c3.965 0 7.19-3.226 7.19-7.19V24.447a4.319 4.319 0 00-4.314-4.314zm7.069 3.103c.067.395.122.796.122 1.21v11.697c0 .415-.055.816-.123 1.211 1.734-.56 3-2.17 3-4.087v-5.944c0-1.917-1.266-3.527-3-4.087z" fill="#41C59F"/><path d="M21.57 0C9.677 0 0 9.676 0 21.57v.037a7.12 7.12 0 012.942-1.335c.672-9.702 8.76-17.396 18.629-17.396 9.87 0 17.956 7.694 18.628 17.395a7.123 7.123 0 012.942 1.336v-.036C43.141 9.676 33.466 0 21.571 0z" fill="#41C59F"/></svg>