<svg width="50" height="50" fill="none" xmlns="http://www.w3.org/2000/svg"><path d="M22.292 33.34a6.18 6.18 0 00-.114-.731c-.018-.09-.043-.17-.066-.256a4.846 4.846 0 00-.151-.497c-.033-.09-.063-.18-.099-.269a6.126 6.126 0 00-.307-.654c-.042-.076-.09-.148-.134-.222a7.381 7.381 0 00-.26-.398 6.004 6.004 0 00-.49-.602c-.061-.067-.12-.138-.183-.202a6.434 6.434 0 00-.503-.447c-.069-.056-.142-.107-.215-.16a5.355 5.355 0 00-.412-.28 6.195 6.195 0 00-.204-.125 6.328 6.328 0 00-1.361-.573c-.061-.017-.123-.03-.184-.047a5.431 5.431 0 00-.573-.117c-.067-.01-.133-.023-.201-.03a6.205 6.205 0 00-.764-.051 6.25 6.25 0 00-.833 12.442l.107.012c.21.024.421.037.632.04h.187a6.006 6.006 0 00.766-.062l.12-.02a6.45 6.45 0 001.628-.492l.074-.036c.11-.05.218-.104.33-.162a6.263 6.263 0 003.217-5.024c0-.074.008-.148.01-.222a6.104 6.104 0 00-.007-.618c-.005-.066-.005-.132-.01-.197z" fill="#41C59F"/><path fill-rule="evenodd" clip-rule="evenodd" d="M32.143 35.714c0 .493-.4.893-.893.893h-.982c-1.109.005-2.1.69-2.497 1.725-.095.25-.198.496-.308.738A2.687 2.687 0 0028 42.067l.698.699a.894.894 0 010 1.264l-2.523 2.523a.893.893 0 01-1.262 0l-.7-.7a2.684 2.684 0 00-2.997-.535c-.242.11-.488.213-.736.307a2.686 2.686 0 00-1.729 2.5v.982c0 .493-.4.893-.893.893h-3.571a.893.893 0 01-.893-.893v-.982a2.688 2.688 0 00-1.725-2.497c-.25-.095-.496-.197-.738-.308a2.689 2.689 0 00-2.997.536l-.699.699a.894.894 0 01-1.263 0L3.447 44.03a.893.893 0 010-1.262l.7-.7a2.687 2.687 0 00.535-2.997 12.82 12.82 0 01-.307-.736 2.686 2.686 0 00-2.5-1.729H.893A.893.893 0 010 35.714v-3.571c0-.493.4-.893.893-.893h.982a2.687 2.687 0 002.497-1.727c.096-.25.198-.496.308-.738a2.687 2.687 0 00-.536-2.997l-.699-.699a.894.894 0 010-1.263l2.524-2.522a.893.893 0 011.262 0l.7.7a2.684 2.684 0 002.997.535c.241-.11.488-.212.736-.307a2.686 2.686 0 001.729-2.5v-.982c0-.493.4-.893.893-.893h3.571c.493 0 .893.4.893.893v.982c.005 1.109.69 2.1 1.725 2.497.25.096.496.198.738.308A2.685 2.685 0 0024.21 22l.699-.698a.898.898 0 011.263 0l2.524 2.523a.893.893 0 010 1.262l-.7.7a2.687 2.687 0 00-.535 2.997c.11.242.212.488.307.736a2.686 2.686 0 002.5 1.729h.982c.493 0 .893.4.893.893v3.571zm-8.068-1.156c.013-.16.025-.32.025-.48 0-.023.002-.045.003-.068a1.13 1.13 0 00.004-.086c0-.078-.005-.154-.01-.228l-.008-.129a7.875 7.875 0 00-.16-1.318 6.339 6.339 0 00-.096-.378l-.015-.056a7.672 7.672 0 00-.219-.681 4.053 4.053 0 00-.086-.232 7.917 7.917 0 00-.393-.836l-.016-.032a7.93 7.93 0 00-.819-1.202.596.596 0 00-.047-.055l-.034-.039a7.677 7.677 0 00-.384-.421c-.055-.057-.112-.111-.17-.166l-.046-.044a12.666 12.666 0 00-.267-.244 9.931 9.931 0 00-.332-.273l-.146-.109a7.975 7.975 0 00-4.787-1.596c-.044 0-.09.004-.134.008-.044.004-.089.009-.133.009a7.92 7.92 0 00-.877.072c-.291.038-.58.092-.866.162a8.04 8.04 0 00.007 15.57.17.17 0 00.044.008c.309.077.621.137.936.179.173.021.345.029.518.036l.107.005c.054.003.107.008.16.012.082.008.165.016.254.016.252 0 .52-.017.788-.044l.039-.006a7.76 7.76 0 00.711-.107 2.5 2.5 0 00.155-.035l.103-.024a6.12 6.12 0 00.843-.246 5.14 5.14 0 01.174-.063c.07-.024.138-.048.202-.074.095-.04.188-.083.281-.127a19.798 19.798 0 01.123-.057c.128-.06.259-.12.39-.19h.006a10.593 10.593 0 002.288-1.653c.185-.173.346-.37.479-.586a9.53 9.53 0 001.405-4.188v-.004z" fill="#41C59F"/><path d="M49.107 18.75h-2.808a2.656 2.656 0 01-2.526-1.805 16.99 16.99 0 00-.91-2.188 2.658 2.658 0 01.504-3.068l1.99-1.994a.892.892 0 000-1.262l-3.79-3.79a.893.893 0 00-1.262 0l-1.994 1.991a2.662 2.662 0 01-3.067.504 16.875 16.875 0 00-2.19-.91A2.656 2.656 0 0131.25 3.7V.893c0-.493-.4-.893-.893-.893H25c-.493 0-.893.4-.893.893V3.7a2.657 2.657 0 01-1.805 2.526c-.75.251-1.48.555-2.188.91a2.655 2.655 0 01-3.068-.504l-1.995-1.99a.893.893 0 00-1.262 0l-3.79 3.789a.893.893 0 000 1.263l6.37 6.376h1.536c.45-.709.975-1.368 1.566-1.964.27-.27.555-.528.852-.77.116-.095.238-.18.357-.268.186-.141.369-.284.563-.414.13-.089.267-.16.397-.24.195-.12.386-.241.588-.348.116-.062.236-.112.357-.17.227-.112.454-.223.689-.32.09-.035.178-.063.262-.096.268-.103.543-.203.823-.286.045-.014.089-.023.136-.036a11.428 11.428 0 016.375 0c.046.013.09.022.137.036.28.083.552.183.822.286.09.033.179.06.263.097.235.096.461.207.688.319.118.058.237.108.357.17.202.107.393.228.587.346.133.082.268.156.399.242.194.13.377.268.562.413.118.089.24.172.357.268a11.5 11.5 0 011.622 1.622c.094.116.179.238.268.357.14.185.283.368.412.562.09.13.16.268.242.399.119.194.24.385.347.587.062.116.112.235.17.357.112.227.222.453.32.688.035.09.062.178.096.263.103.267.203.542.286.822.014.046.022.09.036.136a11.428 11.428 0 010 6.375c-.014.046-.023.09-.036.137-.083.28-.178.552-.286.823-.034.088-.061.178-.097.262a11.49 11.49 0 01-.319.688c-.058.118-.108.238-.17.357-.107.202-.229.394-.347.589-.081.132-.155.268-.242.397a9.22 9.22 0 01-.413.563c-.09.118-.172.24-.268.357-.242.297-.5.58-.77.852a11.626 11.626 0 01-1.965 1.565c0 .017.005.033.005.049v1.487L40.305 40a.892.892 0 001.262 0l3.79-3.79a.893.893 0 000-1.262l-1.991-1.994a2.659 2.659 0 01-.505-3.067 16.6 16.6 0 00.91-2.19 2.656 2.656 0 012.528-1.804h2.808c.493 0 .893-.4.893-.893v-5.357c0-.493-.4-.893-.893-.893z" fill="#41C59F"/></svg>