<svg width="20" height="20" fill="none" xmlns="http://www.w3.org/2000/svg"><path d="M16.322 12.711a3.662 3.662 0 00-2.87 1.397L7.21 10.943A3.63 3.63 0 007.35 10c0-.358-.07-.695-.167-1.023l6.214-3.15a3.662 3.662 0 002.926 1.46c2.033 0 3.677-1.63 3.677-3.644C20 1.631 18.356 0 16.323 0c-2.028 0-3.674 1.631-3.674 3.643 0 .33.059.643.142.946L6.548 7.754a3.67 3.67 0 00-2.875-1.4C1.644 6.355 0 7.988 0 10s1.643 3.643 3.674 3.643a3.67 3.67 0 002.93-1.462l6.211 3.15a3.573 3.573 0 00-.168 1.025c0 2.013 1.646 3.644 3.674 3.644 2.033 0 3.677-1.631 3.677-3.644.001-2.014-1.643-3.645-3.676-3.645z" fill="#ADADAF"/></svg>