<?xml version="1.0" standalone="no"?>
<!DOCTYPE svg PUBLIC "-//W3C//DTD SVG 1.1//EN" "http://www.w3.org/Graphics/SVG/1.1/DTD/svg11.dtd" >
<svg xmlns="http://www.w3.org/2000/svg">
<metadata>Generated by IcoMoon</metadata>
<defs>
<font id="iconfont" horiz-adv-x="1024">
<font-face units-per-em="1024" ascent="960" descent="-64" />
<missing-glyph horiz-adv-x="1024" />
<glyph unicode="&#x20;" horiz-adv-x="512" d="" />
<glyph unicode="&#xe900;" glyph-name="addpay" horiz-adv-x="942" d="M915.45 618.967c-5.644 6.832-14.039 10.791-22.911 10.791h-220.109c-31.472-38.631-7.698-9.433-122.29-150.211-11.864-14.569-34.177-14.615-46.078 0-116.513 143.137-91.109 111.935-122.29 150.211h-183.12l-24.692 139.4c-2.515 14.177-14.831 24.514-29.246 24.514h-114.212c-16.395 0-29.701-13.306-29.701-29.702s13.306-29.702 29.701-29.702h89.322c27.662-156.189 6.033-40.958 86.135-456.194v-105.798c19.298 4.098 39.614 4.239 59.402 0.020v78.905h565.617c14.236 0 26.474 10.099 29.166 24.078l61.563 319.154c1.683 8.692-0.614 17.701-6.257 24.533zM375.12 62.618c4.084-19.007 4.262-39.571 0-59.402h208.187c-4.168 19.581-4.131 40.077 0.020 59.402h-208.208zM235.725 116.001c-45.796 0-83.085-37.284-83.085-83.085 0-45.818 37.266-83.104 83.085-83.104 46.053 0 83.085 37.538 83.085 83.104 0 45.789-37.274 83.085-83.085 83.085v0zM735.711-49.166c45.292 7.342 76.055 50.008 68.712 95.298-7.342 45.292-50.008 76.055-95.3 68.712-45.289-7.342-76.052-50.008-68.71-95.3 7.342-45.289 50.008-76.052 95.298-68.71zM527.102 545.348l149.103 183.146c5.265 6.47 0.664 16.153-7.68 16.153h-36.319c-16.394 0-29.7 13.286-29.7 29.701v175.752c0 5.467-4.434 9.901-9.902 9.901h-130.982c-5.468 0-9.902-4.433-9.902-9.901v-175.754c0-16.415-13.306-29.701-29.7-29.701h-36.34c-8.339 0-12.943-9.683-7.678-16.153l149.101-183.144z" />
<glyph unicode="&#xe901;" glyph-name="arrowActive" d="M1023.409 454.143c-0.283 1.348-0.73 2.592-1.181 3.877-0.222 0.643-0.345 1.306-0.567 1.929-0.591 1.431-1.345 2.758-2.137 4.064-0.246 0.415-0.406 0.871-0.672 1.285-1.12 1.7-2.379 3.276-3.802 4.727l-254.14 258.995c-11.923 12.15-31.229 12.15-43.151 0-11.919-12.13-11.919-31.848 0-43.978l202.059-205.936h-889.302c-16.845 0-30.516-13.913-30.516-31.102s13.671-31.102 30.516-31.102h889.302l-202.1-205.956c-11.919-12.131-11.919-31.829 0-43.977 5.963-6.076 13.773-9.103 21.586-9.103s15.626 3.028 21.586 9.103l254.16 259.015c1.403 1.431 2.683 3.027 3.802 4.727 0.287 0.415 0.427 0.871 0.672 1.285 0.792 1.306 1.546 2.633 2.137 4.064 0.242 0.622 0.365 1.306 0.567 1.928 0.43 1.285 0.898 2.53 1.181 3.877 0.406 2.011 0.591 4.064 0.591 6.138s-0.205 4.147-0.591 6.138z" />
<glyph unicode="&#xe902;" glyph-name="arrowDefault" d="M0.59 441.857c0.285-1.348 0.732-2.592 1.18-3.877 0.224-0.643 0.346-1.306 0.57-1.929 0.59-1.431 1.343-2.758 2.136-4.064 0.244-0.415 0.407-0.871 0.671-1.285 1.119-1.7 2.38-3.276 3.804-4.727l254.138-258.995c11.922-12.151 31.228-12.151 43.15 0 11.921 12.128 11.921 31.846 0 43.977l-202.058 205.935h889.303c16.845 0 30.515 13.913 30.515 31.102s-13.67 31.102-30.515 31.102h-889.303l202.098 205.956c11.922 12.13 11.922 31.827 0 43.978-5.961 6.075-13.773 9.102-21.585 9.102s-15.624-3.027-21.585-9.102l-254.159-259.016c-1.404-1.431-2.685-3.027-3.804-4.727-0.285-0.415-0.427-0.871-0.671-1.285-0.793-1.306-1.546-2.633-2.136-4.064-0.244-0.622-0.366-1.306-0.57-1.928-0.427-1.285-0.895-2.53-1.18-3.877-0.407-2.011-0.59-4.064-0.59-6.138s0.203-4.147 0.59-6.138z" />
<glyph unicode="&#xe903;" glyph-name="car" d="M20.983 323.478h528.907c7.905 0 14.374 6.469 14.374 14.37v428.447c0 23.814-19.303 43.117-43.118 43.117h-471.416c-23.814 0-43.117-19.303-43.117-43.117v-428.443c-0.002-7.905 6.467-14.374 14.371-14.374zM127.561 612.189c0 9.852 7.986 17.84 17.84 17.84h141.101v50.275c0 15.893 19.219 23.852 30.455 12.61l121.587-121.646c6.963-6.965 6.963-18.257 0-25.223l-121.587-121.625c-11.236-11.24-30.455-3.283-30.455 12.611v50.286h-141.102c-9.852 0-17.839 7.989-17.839 17.84v107.031h0.002zM14.372 208.069h175.057c4.168 28.744 18.684 54.184 39.67 72.437h-214.726c-7.906 0-14.372-6.469-14.372-14.374v-43.693c0-7.905 6.467-14.37 14.372-14.37zM1007.224 280.504h-34.924v195.323c0 22.851-6.899 45.273-19.691 64.245l-87.528 129.64c-21.416 31.619-57.061 50.591-95.29 50.591h-135.676c-15.954 0-28.746-12.935-28.746-28.745v-411.054h-222.198c21.129-18.251 35.643-43.693 39.812-72.439h234.271c8.337 57.059 57.491 101.183 116.85 101.183 59.358 0 108.367-44.124 116.704-101.183h116.417c7.905 0 14.372 6.469 14.372 14.374v43.693c0 7.903-6.467 14.372-14.372 14.372zM684.994 514.203h179.080c11.641 0 18.396 13.077 11.788 22.562l-69.993 99.46c-2.731 3.738-7.044 6.036-11.786 6.036h-109.088c-7.905 0-14.372-6.468-14.372-14.373v-99.313c0-8.047 6.467-14.372 14.372-14.372zM306.136 280.504c-49.299 0-89.399-40.099-89.399-89.542 0-49.295 40.101-89.395 89.399-89.395 49.439 0 89.395 40.099 89.395 89.395-0.002 49.443-39.956 89.542-89.395 89.542zM261.437 190.962c0-24.574 19.976-44.699 44.699-44.699 24.719 0 44.697 20.125 44.697 44.699 0 24.723-19.978 44.699-44.697 44.699-24.721 0-44.699-19.974-44.699-44.699zM774.102 280.504c-49.441 0-89.399-40.099-89.399-89.542 0-49.295 39.958-89.395 89.399-89.395 49.297 0 89.395 40.099 89.395 89.395 0.002 49.443-40.095 89.542-89.395 89.542zM729.403 190.962c0-24.574 19.976-44.699 44.699-44.699 24.721 0 44.699 20.125 44.697 44.699 0 24.723-19.976 44.699-44.697 44.699s-44.699-19.974-44.699-44.699z" />
<glyph unicode="&#xe904;" glyph-name="cart" d="M994.304 720.725l-774.144 98.987-15.701 110.933c-2.389 16.725-16.725 29.355-33.792 29.355h-136.533c-18.773 0-34.133-15.36-34.133-34.133s15.36-34.133 34.133-34.133h106.837l15.36-106.837v-0.341l57.344-399.701-51.883-113.323c-9.899-21.163-8.192-45.397 4.437-65.195s34.133-31.403 57.685-31.403h697.685c18.773 0 34.133 15.36 34.133 34.133s-15.36 34.133-34.133 34.133h-697.685l46.763 102.4h654.336c35.157 0 64.171 26.283 67.93 60.757l30.72 276.821c2.044 18.432-10.927 35.157-29.359 37.547zM819.234 140.8c-56.32 0-102.4-46.080-102.4-102.4s46.080-102.4 102.4-102.4c56.32 0 102.4 46.080 102.4 102.4s-46.080 102.4-102.4 102.4zM307.233 140.8c-56.32 0-102.4-46.080-102.4-102.4s46.080-102.4 102.4-102.4c56.32 0 102.4 46.080 102.4 102.4s-46.080 102.4-102.4 102.4z" />
<glyph unicode="&#xe905;" glyph-name="check" d="M953.158 807.882c-8.799-1.271-16.919-5.443-23.078-11.853-205.255-205.698-392.184-409.097-594.465-613.176l-270.721 216.451c-17.225 13.782-42.36 10.987-56.14-6.239-13.78-17.222-10.987-42.359 6.238-56.138l299.415-239.533c15.903-12.572 38.702-11.23 53.021 3.118 213.737 214.198 406.697 426.199 618.79 638.754 12.709 11.933 16.202 30.73 8.636 46.433s-24.443 24.683-41.696 22.183z" />
<glyph unicode="&#xe906;" glyph-name="closeBublemob" d="M511.936 479.848l-434.731 434.731-44.824-44.824 434.731-434.73-434.731-434.732 44.824-44.822 434.731 434.732 434.733-434.732 44.822 44.822-434.732 434.732 434.732 434.73-44.822 44.824-434.733-434.731z" />
<glyph unicode="&#xe907;" glyph-name="closeMenuMob" d="M511.936 479.848l-434.731 434.731-44.824-44.824 434.731-434.73-434.731-434.732 44.824-44.822 434.731 434.732 434.733-434.732 44.822 44.822-434.732 434.732 434.732 434.73-44.822 44.824-434.733-434.731z" />
<glyph unicode="&#xe908;" glyph-name="closeMenuTablet" d="M512 526.768l-433.231 433.232-78.769-78.769 433.232-433.231-433.232-433.232 78.769-78.768 433.231 433.232 433.232-433.232 78.768 78.768-433.232 433.232 433.232 433.231-78.768 78.769-433.232-433.232z" />
<glyph unicode="&#xe909;" glyph-name="creditcards" d="M976.536 767.878l-621.846 131.6c-26.309 5.566-52.387-11.408-57.952-37.717l-11.813-75.922 717.503-151.835 11.815 75.922c5.565 26.299-11.398 52.385-37.707 57.953zM654.324 652.268c26.147 7.251 53.482-8.21 60.745-34.365l10.687-38.5 249.732-52.846-43.865-207.277c-5.567-26.311-31.644-43.284-57.952-37.709l-69.331 14.659 18.499-66.668c7.251-26.157-8.21-53.482-34.355-60.747l-618.18-171.552c-26.147-7.261-53.483 8.21-60.746 34.357l-107.769 388.348c-7.252 26.149 8.209 53.484 34.356 60.737l191.231 53.077 30.606 144.612 278.294-58.898 118.049 32.772zM801.749 492.782l-15.287-72.255c-2.296-10.819 4.683-21.545 15.521-23.851l72.255-15.287c10.819-2.294 21.545 4.693 23.841 15.512l15.287 72.255c2.284 10.829-4.693 21.545-15.521 23.841l-72.255 15.299c-10.817 2.284-21.545-4.695-23.841-15.514zM46.902 441.951l618.157 171.542c0.794 0.215 1.585 0.315 2.357 0.315 3.486 0 7.65-2.286 8.869-6.664l21.077-75.941-635.731-176.417-21.078 75.932c-1.321 4.764 1.586 9.915 6.349 11.234zM783.169 211.907c0.864 1.526 1.717 3.962 0.904 6.908l-62.868 226.509-635.732-176.427 62.858-226.519c1.218-4.378 5.384-6.674 8.868-6.674 0.773 0 1.576 0.11 2.358 0.325l618.167 171.552c2.946 0.811 4.592 2.804 5.445 4.326zM259.46 203.315c-2.966 10.665-14.1 16.963-24.767 14.007l-72.193-20.041c-10.656-2.956-16.964-14.1-13.997-24.767l20.031-72.184c2.966-10.665 14.1-16.963 24.766-13.997l72.193 20.031c10.667 2.958 16.965 14.102 14.007 24.767l-20.041 72.184z" />
<glyph unicode="&#xe90a;" glyph-name="deleteItem" d="M1021.736 928.156l-31.795 31.844-479.074-479.041-479.041 479.041-31.826-31.844 479.041-479.036-479.041-479.043 31.826-31.858 479.041 479.107 479.074-479.107 31.795 31.858-479.043 479.043 479.043 479.036z" />
<glyph unicode="&#xe90b;" glyph-name="delivery" d="M366.027 840.965h99.759c36.275 0 65.684-29.407 65.684-65.685v-219.021c0-36.275-29.408-65.682-65.684-65.682h-246.731c-36.274 0-65.681 29.407-65.681 65.682v219.022c0 36.275 29.407 65.684 65.681 65.684h100.37v-49.44h46.602v49.44zM371.444 554.006v96.519c41.068 0 41.47-0.308 41.47-0.308l-70.365 83.878-70.621-83.57h41.214v-96.519h58.301zM457.248 73.055h-382.066c-14.818 0-28.54 4.433-40.183 11.833l225.731 139.764 230.857-142.939c-10.338-5.35-21.898-8.659-34.339-8.659zM0 148.234c0-10.569 2.222-20.604 6.159-29.731l213.005 131.891-213.907 132.445c-3.286-8.448-5.256-17.558-5.256-27.166v-207.439zM260.73 276.128l-228.257 141.33c12.139 8.409 26.825 13.397 42.709 13.397h382.066c13.536 0 26.059-3.862 37.029-10.124l-233.547-144.603zM524.778 388.147l-222.482-137.756 221.214-136.97c5.508 10.453 8.919 22.177 8.919 34.812v207.439c0 11.685-2.893 22.611-7.65 32.475zM930.745 835.657h-115.046v-109.978h-53.746v109.978h-115.753c-41.834 0-75.75-33.915-75.75-75.752v-610.073c0-41.838 33.914-75.752 75.75-75.752h284.546c41.836 0 75.75 33.914 75.75 75.752v610.073c0 41.837-33.914 75.752-75.75 75.752zM773.268 460.725l-53.388 63.644-53.394-63.644h38.542v-82.739h29.7v82.739h38.54zM894.899 300.197h-212.854v26.874h212.856l-0.002-26.874zM871.918 377.986v82.739h38.538l-53.39 63.644-53.392-63.644h38.542v-82.739h29.702z" />
<glyph unicode="&#xe90c;" glyph-name="deliveryTransport" d="M155.444 814.792h154.904c27.030 0 51.766-15.193 63.986-39.302l247.437-488.032v-0.821c-17.447 10.306-37.915 16.268-59.666 16.268-62.416 0-113.473-48.545-117.66-109.887h-225.51c-4.183 61.341-55.361 109.887-117.657 109.887-43.047 0-80.711-23.077-101.278-57.634v210.805c0 33.019 26.768 59.788 59.785 59.788h47.829v251.1c0 26.414 21.414 47.828 47.829 47.828zM621.771 286.637v-0.129c32.577-19.249 55.076-53.654 57.754-93.489h229.218v47.832h-239.143v526.113h-47.829v-479.506l0.595-1.175-0.595 0.354zM194.423 419.728h270.471c8.967 0 14.707 9.446 10.642 17.454l-152.694 297.256c-2.033 3.944-6.098 6.455-10.642 6.455h-117.777c-6.693 0-11.955-5.379-11.955-11.955v-297.255c0-6.575 5.26-11.956 11.955-11.956zM101.273 279.013c-51.881 0-93.941-42.059-93.941-93.939 0-51.882 42.060-93.941 93.941-93.941s93.94 42.059 93.94 93.941c0 51.882-42.058 93.939-93.94 93.939zM54.303 185.072c0-25.938 21.029-46.969 46.97-46.969s46.97 21.031 46.97 46.971c0 25.94-21.030 46.969-46.97 46.969s-46.97-21.031-46.97-46.971zM468.13 185.074c0 51.88 42.059 93.939 93.941 93.939s93.941-42.057 93.939-93.939c0-51.882-42.059-93.941-93.939-93.941-51.882 0-93.941 42.059-93.941 93.941zM562.072 138.103c-25.942 0-46.971 21.031-46.971 46.969 0 25.94 21.031 46.971 46.971 46.971 25.938 0 46.969-21.031 46.969-46.971 0-25.938-21.029-46.969-46.969-46.969zM886.423 635.745h80.457c24.908 0 45.102-20.196 45.102-45.104v-281.925c0-24.908-20.192-45.102-45.102-45.102h-229.208c-24.906 0-45.1 20.194-45.1 45.102v281.927c0 24.906 20.192 45.102 45.1 45.102h80.881v-82.544h67.87v82.544z" />
<glyph unicode="&#xe90d;" glyph-name="facebook" d="M873.999 960h-723.999c-82.703 0-150-67.297-150-150v-723.999c0-82.703 67.297-150.001 150-150.001h302v361.999h-119.999v180.001h119.999v122c0 99.258 80.741 180 180.003 180h181.996v-180h-181.996v-122h181.996l-29.998-180.001h-151.997v-361.999h241.997c82.703 0 150.001 67.297 150.001 150.001v723.999c0 82.703-67.297 150-150.001 150z" />
<glyph unicode="&#xe90e;" glyph-name="hands" d="M1023.22 729.067v-309.739c0 0-66.292-13.060-79.949-14.779-1.855-0.232-4.252-0.691-7.085-1.233-17.967-3.434-53.534-10.234-80.315 15.508-47.813 45.826-217.696 214.772-217.696 214.772s-29.29 28.742-76.323 3.902c-43.171-22.755-107.169-56.104-133.902-69.089-50.532-26.898-92.416 15.777-92.416 48.282 0 25.215 15.734 42.328 38.225 54.913 60.954 36.951 189.424 109.062 242.932 137.493 32.524 17.299 55.958 18.781 100.612-18.837 54.995-46.251 103.936-88.411 103.936-88.411s15.963-13.322 41.421-7.957c62.513 13.217 160.561 35.175 160.561 35.175zM347.041 204.245c8.227 21.136 5.476 44.776-10.297 60.995-14.173 14.507-34.865 18.332-54.595 13.81 5.518 19.57 2.471 40.399-11.778 55.097-14.216 14.472-34.869 18.371-54.599 13.808 5.478 19.541 2.438 40.367-11.819 55.024-22.325 22.898-60.942 21.916-86.311-2.265-25.235-24.216-41.4-68.086-18.878-93.909 18.299-20.911 38.818-14.448 56.44-8.899 4.031 1.268 7.91 2.491 11.576 3.326-1.231-4.389-3.014-8.712-4.81-13.064-6.197-15.017-12.544-30.399 3.131-50.229 16.553-20.972 38.424-14.33 56.632-8.802v0c4.011 1.217 7.843 2.381 11.402 3.184-1.18-4.175-2.828-8.375-4.498-12.631v0c-6.118-15.586-12.53-31.923 2.741-50.552 18.164-22.026 47.059-12.79 68.086-6.067 1.682 0.538 3.312 1.057 4.882 1.546-1.41-3.623-3.096-7.296-4.807-11.022-8.229-17.928-17.038-37.108 1.609-58.167 22.487-25.618 74.453-13.765 99.836 10.453 25.314 24.216 27.744 62.592 5.48 85.565-15.374 15.76-38.29 19.426-59.424 12.798zM673.542 502.071c13.911-13.946 27.847-27.869 136.661-136.682 0.128-0.085 0.278-0.167 0.425-0.252 0.126-0.069 0.248-0.14 0.356-0.207 17.473-17.629 17.473-46.175 0-63.649-17.55-17.471-46.137-17.471-63.569 0l-0.045 0.047c-2.064 2.119-73.821 75.849-79.634 70-4.75-4.787 44.18-57.695 62.314-77.304 4.035-4.364 6.546-7.077 6.601-7.249 14.625-17.583 14.273-43.678-2.225-60.172-16.955-16.965-44.105-17.083-61.729-1.211-0.016 0-1.026 0.929-2.836 2.595-16.152 14.858-95.984 88.296-101.453 82.859-6.008-6.008 72.927-76.325 72.927-76.325 1.329-1.367 4.913-4.799 5.774-5.616 17.471-17.554 17.508-46.064 0-63.569-17.552-17.477-46.1-17.477-63.571 0-0.061 0.063-0.256 0.264-0.573 0.591-7.353 7.611-80.731 83.558-85.516 78.732-5.029-5.069 57.46-70.432 58.086-71.056 17.51-17.595 17.434-46.106 0-63.61-17.548-17.512-46.113-17.512-63.608 0-8.928 9.001-23.243 24.96-23.631 25.468-0.037 0.071-0.116 0.071-0.158 0.071 5.104 31.902-3.32 64.973-27.051 89.348-12.091 12.363-27.104 21.366-43.719 26.207-4.070 17.662-12.788 33.963-25.876 47.458-11.622 11.941-26.014 20.675-41.905 25.59-4.271 16.217-12.542 31.043-24.474 43.321-11.581 11.934-25.994 20.634-41.905 25.545-4.236 16.299-12.538 31.043-24.434 43.404-39.487 40.661-111.428 40.231-154.83-1.109-13.225-12.851-22.759-28.412-28.668-45.263-26.162 10.687-55.277 19.113-55.277 19.113v354.43l101.966-35.508c52.903-21.411 90.015 2.36 90.015 2.36s130.821 85.702 193.434 85.702c62.633 0 91.225-36.23 91.225-36.23s-93.852-49.92-134.626-78.136c-28.997-18.097-48.437-49.98-48.437-86.6 0-56.45 45.844-101.868 102.351-102.237 9.876-0.067 30.911 4.677 60.14 20.003 26.6 12.52 61.95 28.918 89.409 40.95 39.113 17.162 68.791-12.383 68.791-12.383 40.188-40.277 49.725-49.857 59.274-59.429z" />
<glyph unicode="&#xe90f;" glyph-name="headphones" horiz-adv-x="901" d="M206.193 547.682c-48.719 0-88.353-39.633-88.353-88.353v-239.536c0-48.72 39.634-88.355 88.353-88.355 48.722 0 88.355 39.635 88.355 88.355v239.536c0 48.72-39.633 88.353-88.355 88.353zM58.903 459.33c0 8.495 1.121 16.701 2.509 24.805-35.495-11.473-61.412-44.442-61.412-83.708v-121.731c0-39.266 25.917-72.237 61.412-83.71-1.388 8.104-2.509 16.31-2.509 24.807v239.536zM677.403 547.682c-48.72 0-88.353-39.633-88.353-88.353v-239.536c0-48.72 39.633-88.355 88.353-88.355 8.856 0 17.244 1.704 25.313 4.139-10.963-36.34-44.347-63.042-84.216-63.042h-93.778c-12.198 34.208-44.583 58.903-82.928 58.903-48.722 0-88.355-39.633-88.355-88.353s39.633-88.355 88.355-88.355c38.345 0 70.73 24.697 82.928 58.903h93.778c81.193 0 147.257 66.064 147.257 147.257v298.439c0 48.72-39.633 88.353-88.355 88.353zM822.159 484.135c1.389-8.104 2.511-16.31 2.511-24.805v-239.536c0-8.497-1.122-16.703-2.511-24.807 35.496 11.473 61.411 44.444 61.411 83.71v121.731c0 39.266-25.915 72.235-61.411 83.708zM441.768 960c-243.604 0-441.768-198.163-441.768-441.768v-0.752c17.547 13.283 37.849 23.005 60.251 27.357 13.765 198.695 179.391 356.26 381.517 356.26s367.751-157.565 381.518-356.258c22.401-4.352 42.701-14.076 60.25-27.357v0.75c0 243.604-198.162 441.768-441.768 441.768z" />
<glyph unicode="&#xe910;" glyph-name="search" d="M820.339 214.234l189.51-189.299c19.072-20.326 19.072-52.090-1.274-73.69-8.902-10.163-21.626-15.245-35.61-15.245-12.723 0-25.44 5.082-35.616 15.245l-189.504 189.299c-81.402-64.794-183.146-100.365-287.437-100.365-123.37 0-239.107 48.275-325.593 134.669-86.486 87.661-134.816 202.006-134.816 325.242s48.33 238.849 134.816 325.24c87.757 86.392 202.223 134.67 325.593 134.67s239.105-48.278 325.594-134.67c165.338-163.891 179.328-430.69 34.336-611.096zM714.778 248.538c67.411 67.334 104.294 157.537 104.294 252.822s-36.883 185.489-104.294 252.824c-67.405 67.335-157.708 104.179-253.097 104.179s-185.69-36.844-253.098-104.179c-67.408-67.335-104.292-157.539-104.292-252.824s36.884-185.488 104.292-252.822c67.408-67.334 157.709-104.179 253.098-104.179s185.692 36.845 253.097 104.179z" />
<glyph unicode="&#xe911;" glyph-name="stanok" d="M485.447 627.278v27.583l-399.947 60.681 5.517-113.088 391.671-88.263 2.759 113.087zM2.778 726.583l5.517-104.814 68.956-16.549-5.517 110.329-68.956 11.033zM496.501 511.431l121.361-27.583 5.518 151.705-124.123 19.308v-27.583l-2.756-115.847zM74.515 767.958l-60.681-27.583 63.44-11.033 63.44 33.099-66.198 5.517zM576.475 712.792l-66.196-46.89 113.087-16.55 74.473 52.407-115.846 11.033h-5.518zM559.96 715.548l-397.187 44.132-63.44-33.099 391.672-57.923 68.955 46.89zM819.246 756.92v-13.791l-176.529-22.066 74.473-8.275 253.759 30.341-115.846 13.791c2.759 5.517 5.515 19.308-2.759 24.824v11.033h5.518v88.264h-27.583v-88.264h5.515v-11.033c-2.759-5.517-2.759-16.55 0-19.308l-433.044 35.857-278.584-19.308 38.616-5.517 237.209 19.308 419.254-35.857zM752.996 748.645l-353.055 30.341-165.496-13.791 347.54-38.615 171.011 22.066zM496.506 497.65l-8.274-259.274-402.704 146.187v5.515l-8.275 201.353-66.198 13.79 16.549-322.714 68.956-33.098 11.033 2.756 19.308 55.165 2.758 11.034 46.89-19.308 256.516-99.297 44.134-124.12 124.12-52.409 16.549 446.837-121.364 27.583zM99.33 395.588l375.123-137.913 8.274 242.728-391.672 88.263 8.275-193.078zM631.66 445.244l44.132 13.79-2.756-154.462-49.65-22.064-8.274-251.002 82.748 52.406 44.132 121.364 82.748 41.375v-30.342c0 0-2.759 0-2.759-2.759 0-5.515 2.759-2.759 2.759-5.515v-16.549c0-2.759 2.759-2.759 5.515-2.759 2.759 0 5.518 0 5.518 2.759l5.515 16.549 2.759 2.756 2.759 30.342 13.79-2.759 11.034-30.339 11.034-2.759 66.196 41.375 35.857 330.988-353.055-104.812v-27.583zM631.683 434.204l-5.515-140.672 35.857 16.549 2.756 135.154-33.098-11.031zM717.173 699.004l-79.989-57.923-5.518-157.221 353.058 104.815 13.79 146.186-281.341-35.857z" />
<glyph unicode="&#xe912;" glyph-name="water" d="M416.046 498.168c36.874 35.619 60.229 85.482 60.229 141.283 0 20.183-6.146 42.741-15.979 66.486-11.062 24.932-25.812 49.864-43.020 75.984 0 1.187-1.229 1.187-1.229 2.374-35.645 52.239-82.353 103.29-121.686 147.219l-24.583 27.307-24.583-27.307c-76.207-85.482-181.914-203.019-181.914-292.063 0-54.613 23.354-104.476 60.228-141.283 36.875-35.619 88.499-58.175 146.269-58.175 56.541 0 108.165 22.557 146.269 58.175zM573.415 900.64c-18.436-21.37-39.334-43.928-60.228-68.86l-31.961-35.617c14.75-22.558 27.042-45.115 36.876-67.673 13.521-30.868 20.894-60.55 20.894-89.043 0-71.235-29.499-136.535-78.664-184.024-49.166-47.489-115.54-75.985-190.518-75.985-17.208 0-33.187 1.188-49.166 4.751-6.146 1.188-11.062 2.376-17.208 3.559-2.458-9.495-4.916-18.993-7.375-28.492-3.687-17.809-6.146-34.431-6.146-52.24 0-102.101 43.020-194.707 111.852-262.382 70.062-67.67 165.936-108.040 271.643-108.040 105.705 0 201.581 41.554 271.643 108.040 70.058 66.486 111.849 160.281 111.849 262.382 0 162.652-188.060 371.609-323.265 523.577-20.894 26.119-40.563 48.677-60.228 70.047z" />
<glyph unicode="&#xe913;" glyph-name="inst" d="M873.999 960c82.801 0 150.001-67.2 150.001-150v-723.999c0-82.801-67.2-150.001-150.001-150.001h-723.999c-82.8 0-150 67.2-150 150.001v723.999c0 82.8 67.2 150 150 150h723.999zM242 445.998c0-148.797 121.202-269.998 270-269.998s269.998 121.201 269.998 269.998c0 148.804-121.201 270.002-269.998 270.002s-270-121.198-270-270.002zM841.999 716c32.998 0 60.001 27 60.001 60s-27.003 60-60.001 60c-32.998 0-60.001-27-60.001-60s27.003-60 60.001-60zM302 445.998c0-115.799 94.2-209.997 210-209.997s210.002 94.198 210.002 209.997c0 115.802-94.203 210.002-210.002 210.002s-210-94.2-210-210.002z" />
<glyph unicode="&#xe914;" glyph-name="locations" d="M157.538 618.666c0 188.208 153.126 341.334 341.334 341.334s341.335-153.126 341.335-341.332c0-56.5-14.127-112.521-40.877-162.043l-281.792-509.625c-3.75-6.794-10.896-11-18.666-11s-14.916 4.206-18.666 11l-281.688 509.46c-26.854 49.688-40.98 105.704-40.98 162.206zM328.207 618.666c0-94.102 76.562-170.666 170.666-170.666 94.102 0 170.666 76.564 170.666 170.666 0 94.104-76.564 170.666-170.666 170.666-94.104 0-170.666-76.562-170.666-170.666z" />
<glyph unicode="&#xe915;" glyph-name="phone" d="M889.446 247.281c-63.058 52.91-127.048 84.956-189.327 32.128l-37.192-31.928c-27.208-23.178-77.798-131.471-273.402 89.272-195.56 220.47-79.185 254.796-51.935 277.774l37.393 31.969c61.955 52.949 38.574 119.605-6.11 188.218l-26.966 41.56c-44.888 68.454-93.768 113.411-155.886 60.542l-33.564-28.772c-27.454-19.621-104.196-83.4-122.811-204.563-22.403-145.38 48.269-311.858 210.183-494.524 161.711-182.743 320.041-274.534 470.021-272.937 124.641 1.321 199.921 66.934 223.462 90.793l33.684 28.81c61.957 52.828 23.465 106.619-39.634 159.647l-37.919 32.010z" />
<glyph unicode="&#xe916;" glyph-name="settings" d="M456.532 277.197c-0.473 5.026-1.249 10.027-2.322 14.973-0.383 1.831-0.893 3.492-1.348 5.233-0.901 3.437-1.831 6.838-3.107 10.195-0.662 1.831-1.286 3.662-2.017 5.493-1.831 4.588-3.93 9.062-6.287 13.4-0.856 1.554-1.829 3.037-2.759 4.555-1.688 2.777-3.437 5.482-5.302 8.151-1.286 1.831-2.58 3.537-3.938 5.233-1.956 2.474-4 4.813-6.107 7.098-1.26 1.366-2.445 2.812-3.75 4.133-3.269 3.224-6.705 6.277-10.295 9.144-1.419 1.151-2.918 2.206-4.401 3.285-2.759 2.036-5.491 3.955-8.446 5.741-1.393 0.866-2.769 1.724-4.17 2.546-8.804 4.991-18.162 8.927-27.884 11.741-1.251 0.348-2.509 0.633-3.768 0.965-3.856 0.991-7.776 1.829-11.723 2.4-1.376 0.197-2.742 0.457-4.135 0.616-5.188 0.67-10.402 1.018-15.634 1.044-10.83-0.016-21.625-1.374-32.125-4.026-56.607-14.545-96.169-65.589-96.133-124.035 0.027-58.438 39.643-109.439 96.258-123.929 4.921-1.225 9.912-2.161 14.938-2.822l2.198-0.258c4.295-0.483 8.616-0.752 12.945-0.805h3.822c3.019 0 5.982 0.207 8.919 0.465 2.232 0.197 4.483 0.473 6.769 0.803 0.821 0.109 1.642 0.25 2.456 0.385 11.508 1.874 22.723 5.267 33.348 10.088l1.518 0.733c2.232 1.026 4.465 2.142 6.732 3.33 33.812 18.67 57.42 51.581 64.252 89.598 0.75 4.446 1.321 8.866 1.651 13.296 0 1.499 0.162 3.017 0.215 4.534 0.168 4.241 0.098 8.464-0.162 12.671-0.088 1.339-0.088 2.687-0.205 4.026zM658.287 228.571c0-10.099-8.188-18.285-18.287-18.285h-20.115c-22.706-0.098-43.010-14.135-51.143-35.332-1.937-5.116-4.037-10.16-6.296-15.116-9.402-20.759-5.036-45.16 10.973-61.374l14.303-14.311c3.428-3.428 5.358-8.090 5.358-12.937 0-4.858-1.929-9.509-5.358-12.939l-51.677-51.677c-7.143-7.135-18.715-7.135-25.858 0l-14.33 14.322c-16.206 16.026-40.616 20.392-61.366 10.973-4.956-2.251-10.009-4.358-15.090-6.296-21.25-8.106-35.322-28.455-35.402-51.196v-20.115c0-10.099-8.188-18.287-18.287-18.287h-73.142c-10.099 0-18.285 8.188-18.285 18.287v20.115c-0.098 22.704-14.135 43.008-35.332 51.143-5.116 1.937-10.16 4.035-15.114 6.294-20.76 9.394-45.162 5.028-61.376-10.973l-14.313-14.303c-3.429-3.428-8.089-5.356-12.937-5.356-4.857 0-9.509 1.927-12.937 5.356l-51.679 51.679c-7.134 7.143-7.134 18.715 0 25.858l14.321 14.33c16.009 16.214 20.375 40.616 10.973 61.366-2.25 4.954-4.357 10.009-6.295 15.088-8.107 21.25-28.455 35.322-51.196 35.404h-20.116c-10.098 0-18.286 8.186-18.286 18.285v73.142c0 10.099 8.187 18.287 18.286 18.287h20.116c22.714 0.106 43.027 14.152 51.143 35.367 1.955 5.116 4.045 10.16 6.295 15.124 9.402 20.75 5.036 45.152-10.973 61.366l-14.304 14.311c-3.429 3.428-5.357 8.090-5.357 12.937 0 4.858 1.928 9.509 5.357 12.939l51.679 51.642c7.143 7.133 18.714 7.133 25.857 0l14.33-14.322c16.205-16.028 40.616-20.394 61.367-10.973 4.954 2.249 10.009 4.356 15.090 6.294 21.25 8.108 35.32 28.457 35.402 51.198v20.115c0 10.099 8.186 18.287 18.285 18.287h73.142c10.099 0 18.287-8.188 18.287-18.287v-20.115c0.098-22.706 14.133-43.010 35.33-51.143 5.116-1.956 10.16-4.045 15.116-6.296 20.759-9.411 45.171-5.054 61.374 10.973l14.313 14.303c7.17 7.090 18.704 7.090 25.874 0l51.679-51.677c7.133-7.143 7.133-18.715 0-25.858l-14.322-14.33c-16.009-16.214-20.376-40.616-10.973-61.366 2.251-4.956 4.356-10.009 6.294-15.090 8.108-21.25 28.457-35.322 51.198-35.402h20.115c10.099 0 18.287-8.188 18.287-18.287v-73.142zM493.060 252.258c0.256 3.285 0.512 6.545 0.512 9.814 0.008 0.471 0.037 0.93 0.068 1.397 0.037 0.565 0.074 1.141 0.074 1.763 0 1.606-0.104 3.152-0.207 4.684-0.059 0.877-0.119 1.751-0.158 2.628-0.18 4.393-0.492 8.759-1.028 13.117-0.58 4.731-1.276 9.32-2.249 13.875-0.553 2.599-1.262 5.171-1.972 7.754-0.104 0.379-0.211 0.758-0.313 1.139-1.018 3.768-2.171 7.473-3.457 11.133-0.35 0.944-0.682 1.884-1.012 2.822-0.561 1.589-1.118 3.172-1.763 4.749-2.349 5.857-5.046 11.571-8.063 17.117-0.121 0.209-0.217 0.428-0.313 0.647s-0.193 0.436-0.311 0.647c-4.76 8.464-10.26 16.49-16.456 23.974-0.307 0.383-0.641 0.754-0.973 1.122-0.24 0.264-0.479 0.528-0.707 0.797-2.527 2.982-5.124 5.865-7.848 8.634-1.126 1.167-2.296 2.273-3.475 3.389-0.317 0.301-0.635 0.602-0.952 0.905-1.823 1.696-3.652 3.383-5.482 4.991-2.214 1.911-4.483 3.777-6.787 5.597l-2.998 2.232c-28.277 21.215-62.671 32.688-98.028 32.688-0.915 0-1.833-0.086-2.748-0.17-0.911-0.084-1.825-0.17-2.734-0.17-3.901-0.115-7.813-0.33-11.741-0.731-2.071-0.223-4.151-0.465-6.214-0.752-5.964-0.784-11.885-1.892-17.723-3.312-72.688-18.813-123.437-84.41-123.411-159.49 0.027-75.082 50.84-140.634 123.536-159.394 0.295-0.072 0.606-0.17 0.92-0.17 6.312-1.571 12.714-2.793 19.161-3.652 3.533-0.444 7.064-0.594 10.611-0.743 0.731-0.031 1.462-0.061 2.193-0.096 1.108-0.059 2.187-0.158 3.267-0.258 1.694-0.156 3.387-0.313 5.198-0.313 5.169 0 10.66 0.348 16.142 0.893 0.279 0.027 0.543 0.074 0.801 0.119 0.354 0.063 0.692 0.123 1.030 0.123 4.393 0.492 8.946 1.151 13.535 2.071 1.083 0.207 2.124 0.459 3.183 0.715 0.684 0.166 1.378 0.334 2.093 0.492 3.224 0.67 6.42 1.536 9.716 2.501 2.562 0.713 4.991 1.552 7.553 2.544 1.165 0.453 2.367 0.872 3.559 1.29 1.421 0.498 2.826 0.989 4.137 1.522 1.948 0.801 3.86 1.696 5.771 2.589 0.455 0.213 0.907 0.424 1.362 0.635 0.381 0.178 0.762 0.356 1.145 0.535 2.632 1.225 5.3 2.47 7.999 3.903h0.106c17.062 9.142 32.829 20.527 46.866 33.847 3.795 3.545 7.088 7.582 9.804 12.001 14.266 22.866 23.642 48.445 27.535 75.117 0.508 3.527 0.973 7 1.241 10.66l0.006 0.080zM1005.707 576h-57.508c-23.402-0.090-44.233 14.795-51.732 36.956-5.153 15.356-11.375 30.329-18.635 44.82-10.445 20.974-6.294 46.287 10.314 62.831l40.776 40.848c7.135 7.134 7.135 18.696 0 25.839l-77.615 77.616c-7.143 7.143-18.715 7.143-25.858 0l-40.847-40.777c-16.546-16.58-41.83-20.741-62.812-10.33-14.492 7.268-29.475 13.5-44.841 18.652-22.17 7.5-37.052 28.348-36.954 51.75v57.509c0 10.098-8.188 18.286-18.287 18.286h-109.713c-10.099 0-18.287-8.187-18.287-18.286v-57.509c0.090-23.393-14.795-44.223-36.954-51.732-15.358-5.152-30.331-11.375-44.823-18.634-20.974-10.464-46.295-6.313-62.831 10.312l-40.847 40.759c-7.143 7.143-18.715 7.143-25.858 0l-77.597-77.598c-7.143-7.143-7.143-18.714 0-25.857l130.446-130.598h31.455c9.206 14.526 19.956 28.017 32.072 40.231 5.544 5.546 11.366 10.813 17.447 15.778 2.376 1.937 4.874 3.66 7.311 5.482 3.805 2.892 7.555 5.82 11.518 8.473 2.671 1.821 5.482 3.285 8.135 4.938 3.992 2.429 7.92 4.919 12.055 7.107 2.374 1.268 4.829 2.304 7.311 3.492 4.643 2.286 9.294 4.553 14.098 6.535 1.831 0.733 3.66 1.294 5.374 1.974 5.493 2.116 11.127 4.168 16.849 5.865 0.93 0.276 1.823 0.455 2.796 0.731 42.633 12.384 87.919 12.384 130.562 0 0.928-0.276 1.821-0.455 2.796-0.731 5.722-1.698 11.303-3.75 16.839-5.865 1.831-0.68 3.66-1.241 5.374-1.974 4.813-1.982 9.456-4.25 14.098-6.535 2.421-1.188 4.866-2.224 7.313-3.492 4.133-2.187 8.053-4.661 12.018-7.088 2.724-1.671 5.482-3.189 8.169-4.956 3.973-2.652 7.723-5.491 11.51-8.456 2.427-1.821 4.936-3.527 7.311-5.48 12.153-9.939 23.286-21.072 33.223-33.225 1.937-2.374 3.662-4.882 5.482-7.311 2.875-3.787 5.804-7.537 8.456-11.51 1.821-2.669 3.285-5.482 4.954-8.169 2.429-3.965 4.903-7.885 7.090-12.018 1.268-2.376 2.304-4.821 3.492-7.313 2.286-4.643 4.553-9.286 6.535-14.098 0.731-1.829 1.294-3.652 1.972-5.374 2.118-5.482 4.17-11.117 5.868-16.839 0.276-0.938 0.455-1.831 0.731-2.796 12.384-42.643 12.384-87.929 0-130.562-0.276-0.938-0.455-1.831-0.731-2.796-1.698-5.722-3.652-11.303-5.868-16.847-0.678-1.823-1.241-3.652-1.972-5.376-1.982-4.803-4.25-9.456-6.535-14.098-1.188-2.41-2.224-4.866-3.492-7.311-2.187-4.135-4.678-8.063-7.107-12.055-1.653-2.705-3.17-5.482-4.938-8.135-2.652-3.963-5.491-7.713-8.473-11.516-1.823-2.421-3.51-4.921-5.482-7.313-4.964-6.081-10.232-11.901-15.778-17.447-12.214-12.116-25.704-22.866-40.231-32.072 0-0.348 0.088-0.659 0.088-0.991v-30.464l130.509-130.445c7.135-7.135 18.696-7.135 25.84 0l77.617 77.599c7.141 7.141 7.141 18.713 0 25.856l-40.778 40.847c-16.599 16.538-20.759 41.841-10.33 62.814 7.268 14.49 13.5 29.473 18.651 44.839 7.5 22.17 28.348 37.052 51.751 36.954h57.508c10.099 0 18.287 8.188 18.287 18.287v109.713c0 10.099-8.188 18.287-18.287 18.287z" />
<glyph unicode="&#xe917;" glyph-name="share" d="M835.702 309.181c-59.791 0-112.532-28.242-146.985-71.496l-319.588 162.053c4.184 15.473 7.191 31.462 7.191 48.285 0 18.316-3.572 35.56-8.555 52.34l318.177 161.305c34.268-45.209 88.366-74.758 149.806-74.758 104.069 0 188.252 83.472 188.252 186.568 0 103.002-84.183 186.522-188.252 186.522-103.834 0-188.114-83.52-188.114-186.52 0-16.872 3.011-32.905 7.24-48.424l-319.541-162.053c-34.502 43.297-87.336 71.634-147.22 71.634-103.976 0-188.113-83.565-188.113-186.613s84.14-186.566 188.113-186.566c61.529 0 115.586 29.64 149.992 74.895l318.033-161.306c-4.982-16.732-8.602-34.115-8.602-52.48 0-103.050 84.28-186.568 188.114-186.568 104.069 0 188.257 83.517 188.257 186.568 0.046 103.142-84.137 186.614-188.206 186.614z" />
<glyph unicode="&#xe918;" glyph-name="starNoactive" d="M512 176.417l315.733-240.417-119.467 391.791 315.733 231.514h-384l-128 400.695-128-400.695h-384l315.733-231.514-119.467-391.791 315.733 240.417z" />
<glyph unicode="&#xe919;" glyph-name="telegram" d="M402.548 312.034l-16.886-237.508c24.159 0 34.623 10.381 47.17 22.844l113.267 108.245 234.701-171.878c43.046-23.987 73.37-11.358 84.983 39.599l154.057 721.883 0.043 0.043c13.653 63.63-23.010 88.513-64.947 72.903l-905.545-346.693c-61.801-23.989-60.866-58.441-10.506-74.052l231.511-72.009 537.754 336.484c25.31 16.758 48.32 7.486 29.393-9.273l-434.994-390.589z" />
</font>
</defs>
</svg>
