<svg width="46" height="50" viewBox="0 0 46 50" fill="none" xmlns="http://www.w3.org/2000/svg">
<path d="M44.6997 16.652C44.4241 16.3184 44.0142 16.1251 43.581 16.1251H32.8335C31.2968 18.0114 32.4576 16.5857 26.8623 23.4596C26.283 24.171 25.1935 24.1732 24.6124 23.4596C18.9233 16.4705 20.1637 17.994 18.6412 16.1251H9.6998L8.49414 9.31848C8.37135 8.62622 7.76997 8.12152 7.06611 8.12152H1.48933C0.688784 8.12152 0.0390625 8.77124 0.0390625 9.57179C0.0390625 10.3723 0.688784 11.0221 1.48933 11.0221H5.85078C7.20146 18.6485 6.14538 13.022 10.0566 33.2972V33.2982V38.4631C10.9989 38.263 11.9909 38.2561 12.9571 38.4621V34.6093H40.5751C41.2702 34.6093 41.8678 34.1162 41.9992 33.4336L45.0052 17.8499C45.0874 17.4255 44.9752 16.9856 44.6997 16.652Z" fill="#41C59F"/>
<path d="M18.3164 43.8175C18.5158 44.7456 18.5245 45.7497 18.3164 46.718H28.4818C28.2783 45.7619 28.2801 44.7611 28.4828 43.8175H18.3164Z" fill="#41C59F"/>
<path d="M11.51 41.2109C9.27389 41.2109 7.45312 43.0314 7.45312 45.2678C7.45312 47.505 9.27273 49.3256 11.51 49.3256C13.7587 49.3256 15.5669 47.4927 15.5669 45.2678C15.5669 43.032 13.7469 41.2109 11.51 41.2109V41.2109Z" fill="#41C59F"/>
<path d="M35.9234 49.2757C38.1349 48.9172 39.637 46.8339 39.2785 44.6225C38.92 42.411 36.8367 40.9089 34.6252 41.2674C32.4138 41.6259 30.9117 43.7092 31.2702 45.9207C31.6287 48.1321 33.712 49.6342 35.9234 49.2757Z" fill="#41C59F"/>
<path d="M25.7374 20.2467L33.0178 11.304C33.2749 10.9881 33.0502 10.5153 32.6428 10.5153H30.8694C30.0689 10.5153 29.4192 9.86658 29.4192 9.06506V0.483423C29.4192 0.216477 29.2027 0 28.9357 0H22.5401C22.2731 0 22.0566 0.216477 22.0566 0.483423V9.06516C22.0566 9.86667 21.4069 10.5154 20.6064 10.5154H18.832C18.4248 10.5154 18.2 10.9882 18.4571 11.3041L25.7374 20.2467Z" fill="#41C59F"/>
</svg>
