<svg width="30" height="17" viewBox="0 0 30 17" fill="none" xmlns="http://www.w3.org/2000/svg">
<path opacity="0.501511" d="M0.0172844 8.67996C0.025629 8.71944 0.0387402 8.75589 0.0518532 8.79355C0.0584087 8.81238 0.0619869 8.83182 0.0685425 8.85005C0.0858269 8.89196 0.10788 8.93084 0.131124 8.96911C0.138277 8.98126 0.143045 8.99462 0.150793 9.00677C0.183575 9.05658 0.220528 9.10275 0.262249 9.14527L7.70771 16.733C8.05698 17.089 8.6226 17.089 8.97187 16.733C9.32113 16.3777 9.32113 15.8 8.97187 15.4446L3.05221 9.41134L29.106 9.41134C29.5995 9.41134 30 9.00373 30 8.50015C30 7.99657 29.5995 7.58897 29.106 7.58897L3.05221 7.58897L8.97306 1.55509C9.32233 1.19973 9.32233 0.622644 8.97306 0.266674C8.79843 0.0886898 8.56956 0 8.34068 0C8.11181 0 7.88294 0.0886898 7.70831 0.266674L0.262249 7.85503C0.221125 7.89695 0.183575 7.94372 0.150793 7.99353C0.142448 8.00568 0.138277 8.01905 0.131124 8.03119C0.10788 8.06946 0.0858269 8.10834 0.0685425 8.15026C0.0613899 8.16848 0.0578136 8.18853 0.0518532 8.20675C0.0393372 8.24441 0.025629 8.28086 0.0172844 8.32034C0.00536346 8.37927 0 8.43941 0 8.50015C0 8.5609 0.00596046 8.62164 0.0172844 8.67996Z" fill="black"/>
</svg>
