<svg width="51" height="36" viewBox="0 0 51 36" fill="none" xmlns="http://www.w3.org/2000/svg">
<path fill-rule="evenodd" clip-rule="evenodd" d="M1.04504 24.2018H27.3871C27.7808 24.2018 28.103 23.8796 28.103 23.4861V2.14745C28.103 0.961404 27.1416 0 25.9555 0H2.47676C1.29071 0 0.329309 0.961404 0.329309 2.14745V23.4859C0.329225 23.8796 0.651384 24.2018 1.04504 24.2018ZM6.35313 9.82264C6.35313 9.33196 6.75087 8.93414 7.24163 8.93414H14.2691V6.4302C14.2691 5.63865 15.2263 5.24225 15.7859 5.80218L21.8415 11.8607C22.1883 12.2076 22.1883 12.77 21.8415 13.1169L15.7859 19.1744C15.2263 19.7342 14.2691 19.3379 14.2691 18.5463V16.0418H7.24154C6.75087 16.0418 6.35305 15.6439 6.35305 15.1533V9.82264H6.35313ZM0.715816 29.9497H9.43447C9.64206 28.5181 10.365 27.2511 11.4102 26.342H0.715816C0.322076 26.342 0 26.6642 0 27.0579V29.234C0 29.6277 0.322076 29.9497 0.715816 29.9497ZM50.1645 26.3421H48.4251V16.6141C48.4251 15.476 48.0815 14.3593 47.4444 13.4144L43.0851 6.95771C42.0185 5.38292 40.2432 4.43806 38.3392 4.43806H31.5819C30.7873 4.43806 30.1502 5.08229 30.1502 5.86969V26.3421H19.0837C20.136 27.2511 20.8589 28.5182 21.0665 29.9499H32.7343C33.1495 27.1081 35.5976 24.9105 38.554 24.9105C41.5103 24.9105 43.9512 27.1081 44.3664 29.9499H50.1645C50.5582 29.9499 50.8803 29.6277 50.8803 29.234V27.0579C50.8803 26.6643 50.5582 26.3421 50.1645 26.3421ZM34.1159 14.7028H43.0349C43.6147 14.7028 43.9511 14.0515 43.622 13.5791L40.136 8.62554C40 8.43939 39.7852 8.32491 39.549 8.32491H34.1159C33.7222 8.32491 33.4001 8.64707 33.4001 9.04073V13.987C33.4001 14.3878 33.7222 14.7028 34.1159 14.7028ZM15.247 26.3421C12.7917 26.3421 10.7945 28.3392 10.7945 30.8017C10.7945 33.2568 12.7917 35.254 15.247 35.254C17.7093 35.254 19.6993 33.2569 19.6993 30.8017C19.6992 28.3392 17.7093 26.3421 15.247 26.3421ZM13.0208 30.8017C13.0208 32.0256 14.0157 33.0279 15.247 33.0279C16.4781 33.0279 17.4731 32.0256 17.4731 30.8017C17.4731 29.5704 16.4781 28.5755 15.247 28.5755C14.0158 28.5755 13.0208 29.5703 13.0208 30.8017ZM38.5539 26.3421C36.0915 26.3421 34.1014 28.3392 34.1014 30.8017C34.1014 33.2568 36.0915 35.254 38.5539 35.254C41.0091 35.254 43.0062 33.2569 43.0062 30.8017C43.0063 28.3392 41.0093 26.3421 38.5539 26.3421ZM36.3277 30.8017C36.3277 32.0256 37.3226 33.0279 38.5539 33.0279C39.7851 33.0279 40.7801 32.0256 40.78 30.8017C40.78 29.5704 39.7851 28.5755 38.5539 28.5755C37.3227 28.5755 36.3277 29.5703 36.3277 30.8017Z" fill="#41C59F"/>
</svg>
