<svg width="52" height="46" viewBox="0 0 52 46" fill="none" xmlns="http://www.w3.org/2000/svg">
<path d="M49.5897 6.75619L18.0116 0.0733856C16.6756 -0.20927 15.3513 0.652682 15.0687 1.9887L14.4688 5.84411L50.9045 13.5545L51.5045 9.6991C51.7871 8.36358 50.9257 7.03893 49.5897 6.75619Z" fill="#41C59F"/>
<path fill-rule="evenodd" clip-rule="evenodd" d="M33.2274 12.627C34.5552 12.2588 35.9433 13.0439 36.3121 14.3721L36.8548 16.3272L49.5365 19.0108L47.309 29.5366C47.0263 30.8727 45.7021 31.7346 44.3661 31.4515L40.8454 30.7071L41.7848 34.0926C42.153 35.4209 41.3679 36.8085 40.0402 37.1774L8.64827 45.889C7.32051 46.2577 5.93233 45.4721 5.56349 44.1443L0.09084 24.4235C-0.277413 23.0956 0.507704 21.7075 1.83547 21.3392L11.5464 18.6439L13.1006 11.3003L27.2327 14.2912L33.2274 12.627ZM40.7138 20.7259L39.9375 24.3951C39.8209 24.9445 40.1753 25.4892 40.7257 25.6063L44.3949 26.3826C44.9443 26.4991 45.489 26.1443 45.6056 25.5949L46.3819 21.9257C46.4979 21.3758 46.1436 20.8316 45.5937 20.715L41.9245 19.9381C41.3752 19.8221 40.8304 20.1765 40.7138 20.7259ZM2.38174 23.3072L11.0691 20.8972L31.5668 15.2089L33.7725 14.5961C33.8128 14.5852 33.853 14.5801 33.8922 14.5801C34.0692 14.5801 34.2807 14.6962 34.3426 14.9185L34.6015 15.8511L35.4129 18.7749L3.1297 27.7336L2.05932 23.8777C1.99226 23.6358 2.13986 23.3742 2.38174 23.3072ZM39.7703 34.9891C39.8142 34.9116 39.8575 34.7879 39.8162 34.6383L38.5927 30.2303L36.6237 23.1359L4.34045 32.0951L7.53248 43.598C7.59432 43.8203 7.80587 43.9369 7.98279 43.9369C8.02205 43.9369 8.06283 43.9313 8.10251 43.9204L39.4938 35.2088C39.6434 35.1676 39.727 35.0664 39.7703 34.9891Z" fill="#41C59F"/>
<path d="M13.1757 35.4254C13.0251 34.8838 12.4597 34.564 11.918 34.7141L8.25195 35.7318C7.71082 35.8819 7.3905 36.4478 7.54114 36.9895L8.55836 40.6551C8.709 41.1967 9.27439 41.5165 9.81603 41.3659L13.4821 40.3487C14.0238 40.1985 14.3436 39.6326 14.1934 39.091L13.1757 35.4254Z" fill="#41C59F"/>
</svg>
