<svg width="53" height="38" viewBox="0 0 53 38" fill="none" xmlns="http://www.w3.org/2000/svg">
<path fill-rule="evenodd" clip-rule="evenodd" d="M8.04542 0.0156555H16.0629C17.4619 0.0156555 18.7422 0.802011 19.3747 2.04984L32.1815 27.3093V27.3518C31.2785 26.8184 30.2191 26.5098 29.0933 26.5098C25.8628 26.5098 23.2202 29.0224 23.0035 32.1973H11.3316C11.1151 29.0224 8.46624 26.5098 5.24191 26.5098C3.01388 26.5098 1.06451 27.7042 0 29.4928V18.582C0 16.873 1.38545 15.4875 3.09433 15.4875H5.56987V2.49112C5.56987 1.12398 6.6782 0.0156555 8.04542 0.0156555ZM32.1815 27.3518V27.3585C33.8676 28.3548 35.0321 30.1355 35.1707 32.1973H47.0345V29.7217V29.7216H34.657V2.49112H32.1815V27.3093L32.2123 27.3701L32.1815 27.3518ZM10.0629 20.4633H24.0619C24.526 20.4633 24.8231 19.9744 24.6127 19.5599L16.7096 4.17457C16.6044 3.97045 16.394 3.84045 16.1588 3.84045H10.0629C9.71647 3.84045 9.44414 4.11886 9.44414 4.45923V19.8445C9.44414 20.1848 9.71638 20.4633 10.0629 20.4633ZM5.24166 27.7464C2.55643 27.7464 0.379484 29.9233 0.379484 32.6085C0.379484 35.2938 2.55643 37.4707 5.24166 37.4707C7.92689 37.4707 10.1038 35.2938 10.1038 32.6085C10.1038 29.9232 7.92697 27.7464 5.24166 27.7464ZM2.81061 32.6086C2.81061 33.9511 3.899 35.0396 5.24166 35.0396C6.58431 35.0396 7.6727 33.9511 7.6727 32.6085C7.6727 31.2659 6.58423 30.1775 5.24166 30.1775C3.89908 30.1775 2.81061 31.266 2.81061 32.6086ZM24.2294 32.6085C24.2294 29.9233 26.4063 27.7464 29.0916 27.7464C31.7769 27.7464 33.9538 29.9232 33.9537 32.6085C33.9537 35.2938 31.7768 37.4707 29.0916 37.4707C26.4063 37.4707 24.2294 35.2938 24.2294 32.6085ZM29.0916 35.0396C27.7489 35.0396 26.6605 33.9511 26.6605 32.6086C26.6605 31.266 27.749 30.1775 29.0916 30.1775C30.4341 30.1775 31.5226 31.266 31.5226 32.6086C31.5226 33.9511 30.4342 35.0396 29.0916 35.0396ZM45.8793 9.28272H50.0436C51.3328 9.28272 52.378 10.328 52.378 11.6172V26.209C52.378 27.4982 51.3329 28.5434 50.0436 28.5434H38.1803C36.8912 28.5434 35.846 27.4982 35.846 26.209V11.6171C35.846 10.328 36.8911 9.28272 38.1803 9.28272H42.3665V13.555H45.8793V9.28272Z" fill="#41C59F"/>
</svg>
