<svg width="52" height="40" viewBox="0 0 52 40" fill="none" xmlns="http://www.w3.org/2000/svg">
<path fill-rule="evenodd" clip-rule="evenodd" d="M18.5873 0.0447693H23.6532C25.4953 0.0447693 26.9887 1.5381 26.9887 3.38035V14.5025C26.9887 16.3446 25.4953 17.8379 23.6532 17.8379H11.1239C9.28185 17.8379 7.78852 16.3446 7.78852 14.5025V3.38027C7.78852 1.53818 9.28185 0.0447693 11.1239 0.0447693H16.2208V2.55539H18.5873V0.0447693ZM18.8624 14.6169V9.71554C20.9479 9.71554 20.9683 9.73116 20.9683 9.73116L17.3951 5.47173L13.8089 9.71554H15.9018V14.6169H18.8624ZM23.2196 39.0402H3.8178C3.06533 39.0402 2.36848 38.8151 1.77728 38.4393L13.2402 31.3419L24.9634 38.6005C24.4384 38.8722 23.8514 39.0402 23.2196 39.0402ZM0 35.2225C0 35.7592 0.112829 36.2688 0.312763 36.7323L11.1294 30.0347L0.266914 23.309C0.100051 23.738 0 24.2006 0 24.6885V35.2225ZM13.2402 28.7279L1.649 21.551C2.26542 21.124 3.01121 20.8707 3.8178 20.8707H23.2196C23.907 20.8707 24.5429 21.0668 25.1 21.3848L13.2402 28.7279ZM26.6489 23.0394L15.351 30.0348L26.5845 36.9903C26.8642 36.4595 27.0374 35.8641 27.0374 35.2225V24.6885C27.0374 24.0951 26.8905 23.5403 26.6489 23.0394ZM47.2644 0.314272H41.4222V5.89908H38.6929V0.314272H32.8148C30.6904 0.314272 28.9681 2.03652 28.9681 4.16105V35.1413C28.9681 37.2659 30.6903 38.9881 32.8148 38.9881H47.2644C49.3889 38.9881 51.1111 37.2659 51.1111 35.1413V4.16105C51.1111 2.03652 49.3889 0.314272 47.2644 0.314272ZM39.2675 19.3538L36.5564 16.1219L33.845 19.3538H35.8022V23.5554H37.3104V19.3538H39.2675ZM45.4441 27.5056H34.6351V26.1409H45.4442L45.4441 27.5056ZM44.2771 23.5554V19.3538H46.2341L43.5229 16.1219L40.8116 19.3538H42.7688V23.5554H44.2771Z" fill="#41C59F"/>
</svg>
