<svg width="52" height="38" viewBox="0 0 52 38" fill="none" xmlns="http://www.w3.org/2000/svg">
<path fill-rule="evenodd" clip-rule="evenodd" d="M51.9604 4.72707V20.456C51.9604 20.456 48.594 21.1192 47.9005 21.2065C47.8063 21.2183 47.6846 21.2416 47.5407 21.2691C46.6283 21.4435 44.8222 21.7888 43.4622 20.4816C41.0342 18.1545 32.4073 9.57523 32.4073 9.57523C32.4073 9.57523 30.9199 8.11567 28.5315 9.37708C26.3392 10.5326 23.0893 12.2261 21.7318 12.8855C19.1657 14.2514 17.0388 12.0843 17.0388 10.4337C17.0388 9.15325 17.8378 8.28425 18.9799 7.64515C22.0752 5.76875 28.5991 2.10683 31.3163 0.663101C32.9679 -0.215342 34.1579 -0.290617 36.4255 1.61965C39.2182 3.96835 41.7035 6.10926 41.7035 6.10926C41.7035 6.10926 42.5141 6.78579 43.8069 6.51331C46.9814 5.84213 51.9604 4.72707 51.9604 4.72707ZM17.6232 31.3782C18.041 30.3049 17.9013 29.1044 17.1003 28.2808C16.3806 27.5441 15.3298 27.3499 14.3279 27.5795C14.6081 26.5857 14.4534 25.528 13.7298 24.7816C13.0079 24.0467 11.9591 23.8487 10.9572 24.0804C11.2354 23.0881 11.081 22.0305 10.357 21.2862C9.22329 20.1234 7.26228 20.1733 5.97402 21.4012C4.69258 22.6309 3.87169 24.8587 5.01538 26.17C5.94464 27.2319 6.9866 26.9037 7.88146 26.6219C8.08614 26.5575 8.28312 26.4954 8.46929 26.453C8.40678 26.6759 8.31623 26.8954 8.22504 27.1164C7.91035 27.879 7.58804 28.6601 8.38406 29.6671C9.22464 30.7321 10.3353 30.3948 11.2599 30.1141L11.2599 30.1141C11.4636 30.0523 11.6582 29.9932 11.8389 29.9524C11.779 30.1644 11.6953 30.3777 11.6105 30.5938L11.6105 30.5938C11.2998 31.3853 10.9742 32.2149 11.7497 33.1609C12.6721 34.2794 14.1394 33.8104 15.2072 33.469C15.2926 33.4417 15.3754 33.4153 15.4551 33.3905C15.3835 33.5745 15.2979 33.761 15.211 33.9502C14.7931 34.8606 14.3458 35.8346 15.2927 36.904C16.4346 38.2049 19.0735 37.603 20.3625 36.3732C21.648 35.1435 21.7714 33.1947 20.6408 32.0281C19.8601 31.2278 18.6964 31.0416 17.6232 31.3782ZM34.2033 16.2542C34.9097 16.9624 35.6174 17.6694 41.1431 23.1951C41.1496 23.1994 41.1572 23.2036 41.1647 23.2079C41.1711 23.2114 41.1773 23.215 41.1828 23.2184C42.0701 24.1136 42.0701 25.5632 41.1828 26.4506C40.2916 27.3378 38.8399 27.3378 37.9547 26.4506L37.9524 26.4482C37.8476 26.3406 34.2037 22.5965 33.9085 22.8935C33.6673 23.1366 36.152 25.8233 37.0729 26.8191C37.2778 27.0407 37.4053 27.1785 37.4081 27.1872C38.1508 28.0801 38.1329 29.4052 37.2951 30.2428C36.4341 31.1043 35.0554 31.1103 34.1604 30.3043C34.1596 30.3043 34.1083 30.2571 34.0164 30.1725C33.1962 29.418 29.1422 25.6887 28.8645 25.9648C28.5594 26.2699 32.5678 29.8407 32.5678 29.8407C32.6353 29.9101 32.8173 30.0844 32.861 30.1259C33.7482 31.0173 33.7501 32.4651 32.861 33.354C31.9697 34.2415 30.52 34.2415 29.6328 33.354C29.6297 33.3508 29.6198 33.3406 29.6037 33.324C29.2303 32.9375 25.5041 29.0808 25.2611 29.3259C25.0057 29.5833 28.179 32.9025 28.2108 32.9342C29.1 33.8277 29.0961 35.2755 28.2108 36.1644C27.3197 37.0537 25.8691 37.0537 24.9807 36.1644C24.5273 35.7073 23.8004 34.8969 23.7807 34.8711C23.7788 34.8675 23.7748 34.8675 23.7727 34.8675C24.0319 33.2475 23.6041 31.5681 22.399 30.3303C21.785 29.7025 21.0226 29.2453 20.1789 28.9995C19.9722 28.1026 19.5295 27.2748 18.8649 26.5895C18.2747 25.9831 17.5439 25.5396 16.7369 25.29C16.52 24.4665 16.1 23.7136 15.4941 23.0901C14.906 22.4841 14.1741 22.0423 13.3661 21.7929C13.151 20.9652 12.7294 20.2165 12.1253 19.5888C10.1201 17.524 6.46687 17.5458 4.26285 19.6451C3.59125 20.2977 3.1071 21.0879 2.80706 21.9436C1.47854 21.4009 0 20.973 0 20.973V2.97459L5.17798 4.77771C7.86448 5.86499 9.74906 4.65788 9.74906 4.65788C9.74906 4.65788 16.3923 0.305811 19.5719 0.305811C22.7525 0.305811 24.2044 2.14563 24.2044 2.14563C24.2044 2.14563 19.4385 4.68063 17.3679 6.11346C15.8954 7.03247 14.9082 8.6515 14.9082 10.5111C14.9082 13.3777 17.2362 15.6841 20.1057 15.7028C20.6072 15.7062 21.6754 15.4653 23.1597 14.687C24.5105 14.0512 26.3056 13.2185 27.7 12.6075C29.6862 11.736 31.1933 13.2363 31.1933 13.2363C33.2341 15.2816 33.7184 15.7681 34.2033 16.2542Z" fill="#41C59F"/>
</svg>
