<svg width="44" height="50" viewBox="0 0 44 50" fill="none" xmlns="http://www.w3.org/2000/svg">
<path d="M10.068 20.1327C7.68914 20.1327 5.75391 22.0679 5.75391 24.4468V36.1429C5.75391 38.5218 7.68914 40.4571 10.068 40.4571C12.447 40.4571 14.3822 38.5218 14.3822 36.1429V24.4468C14.3822 22.0679 12.447 20.1327 10.068 20.1327Z" fill="#41C59F"/>
<path d="M2.8761 24.4468C2.8761 24.032 2.93084 23.6313 2.99862 23.2356C1.26548 23.7958 0 25.4056 0 27.3229V33.2668C0 35.1841 1.26548 36.794 2.99862 37.3542C2.93084 36.9585 2.8761 36.5578 2.8761 36.1429V24.4468Z" fill="#41C59F"/>
<path d="M33.0763 20.1327C30.6974 20.1327 28.7622 22.0679 28.7622 24.4468V36.1429C28.7622 38.5218 30.6974 40.4571 33.0763 40.4571C33.5087 40.4571 33.9183 40.3739 34.3123 40.255C33.777 42.0294 32.1469 43.3332 30.2002 43.3332H25.6212C25.0256 41.6629 23.4443 40.4571 21.572 40.4571C19.193 40.4571 17.2578 42.3923 17.2578 44.7712C17.2578 47.1501 19.193 49.0854 21.572 49.0854C23.4443 49.0854 25.0256 47.8795 25.6212 46.2093H30.2002C34.1647 46.2093 37.3905 42.9835 37.3905 39.019V36.1429V24.4468C37.3905 22.0679 35.4553 20.1327 33.0763 20.1327Z" fill="#41C59F"/>
<path d="M40.1445 23.2356C40.2123 23.6313 40.2671 24.032 40.2671 24.4468V36.1429C40.2671 36.5578 40.2123 36.9585 40.1445 37.3542C41.8777 36.794 43.1431 35.1841 43.1431 33.2668V27.3229C43.1431 25.4056 41.8777 23.7958 40.1445 23.2356Z" fill="#41C59F"/>
<path d="M21.5707 0C9.67595 0 0 9.67595 0 21.5707V21.6074C0.856789 20.9588 1.84808 20.4841 2.94196 20.2716C3.6141 10.5697 11.7013 2.8761 21.5707 2.8761C31.4401 2.8761 39.5273 10.5697 40.1995 20.2715C41.2933 20.484 42.2845 20.9588 43.1414 21.6073V21.5707C43.1414 9.67595 33.4655 0 21.5707 0Z" fill="#41C59F"/>
</svg>
