<svg width="36" height="32" viewBox="0 0 36 32" fill="none" xmlns="http://www.w3.org/2000/svg">
<path d="M17.0665 9.69727V8.72757L3.00586 6.59424L3.1998 10.57L16.9695 13.673L17.0665 9.69727Z" fill="#41C59F"/>
<path d="M0.0976562 6.20605L0.291596 9.8909L2.71584 10.4727L2.5219 6.59393L0.0976562 6.20605Z" fill="#41C59F"/>
<path d="M17.4551 13.77L21.7217 14.7397L21.9157 9.40633L17.552 8.72754V9.69724L17.4551 13.77Z" fill="#41C59F"/>
<path d="M2.61966 4.75146L0.486328 5.72116L2.71663 6.10904L4.94693 4.9454L2.61966 4.75146Z" fill="#41C59F"/>
<path d="M20.2667 6.69092L17.9395 8.3394L21.9152 8.92122L24.5334 7.0788L20.4607 6.69092H20.2667Z" fill="#41C59F"/>
<path d="M19.6861 6.594L5.72249 5.04248L3.49219 6.20612L17.2619 8.24248L19.6861 6.594Z" fill="#41C59F"/>
<path d="M28.8016 5.13952V5.62436L22.5955 6.40012L25.2137 6.69103L34.1349 5.62436L30.0622 5.13952C30.1592 4.94558 30.2561 4.46073 29.9652 4.26679V3.87891H30.1592V0.775879H29.1895V3.87891H29.3834V4.26679C29.2864 4.46073 29.2864 4.84861 29.3834 4.94558L14.1592 3.68497L4.36523 4.36376L5.72281 4.5577L14.0622 3.87891L28.8016 5.13952Z" fill="#41C59F"/>
<path d="M26.4725 5.43044L14.0604 4.36377L8.24219 4.84862L20.4604 6.20619L26.4725 5.43044Z" fill="#41C59F"/>
<path d="M17.4553 14.2545L17.1644 23.3696L3.00685 18.2302V18.0363L2.71594 10.9575L0.388672 10.4727L0.97049 21.8181L3.39473 22.9817L3.78261 22.8848L4.4614 20.9454L4.55837 20.5575L6.20685 21.2363L15.225 24.7272L16.7766 29.0908L21.1402 30.9333L21.722 15.2242L17.4553 14.2545Z" fill="#41C59F"/>
<path d="M3.49208 17.8426L16.68 22.6911L16.9709 14.1577L3.20117 11.0547L3.49208 17.8426Z" fill="#41C59F"/>
<path d="M22.2068 16.0969L23.7583 15.6121L23.6614 21.0424L21.9159 21.8181L21.625 30.6424L24.5341 28.8L26.0856 24.5333L28.9947 23.0787V24.1454C28.9947 24.1454 28.8977 24.1454 28.8977 24.2424C28.8977 24.4363 28.9947 24.3394 28.9947 24.4363V25.0181C28.9947 25.1151 29.0917 25.1151 29.1886 25.1151C29.2856 25.1151 29.3826 25.1151 29.3826 25.0181L29.5765 24.4363L29.6735 24.3394L29.7705 23.2727L30.2553 23.3697L30.6432 24.4363L31.0311 24.5333L33.3583 23.0787L34.6189 11.4424L22.2068 15.1272V16.0969Z" fill="#41C59F"/>
<path d="M22.2076 16.485L22.0137 21.4305L23.2743 20.8487L23.3712 16.0972L22.2076 16.485Z" fill="#41C59F"/>
<path d="M25.2131 7.17565L22.401 9.21201L22.207 14.7393L34.6192 11.0544L35.104 5.91504L25.2131 7.17565Z" fill="#41C59F"/>
</svg>
