<svg width="18" height="26" viewBox="0 0 18 26" fill="none" xmlns="http://www.w3.org/2000/svg">
<path fill-rule="evenodd" clip-rule="evenodd" d="M0 8.66668C0 3.88796 3.88796 0 8.66668 0C13.4454 0 17.3334 3.88796 17.3334 8.66663C17.3334 10.1012 16.9747 11.5236 16.2955 12.781L9.14062 25.7207C9.04541 25.8932 8.86397 26 8.66668 26C8.4694 26 8.28796 25.8932 8.19274 25.7207L1.04051 12.7852C0.358668 11.5236 0 10.1013 0 8.66668ZM4.33337 8.66668C4.33337 11.056 6.27732 13 8.66668 13C11.056 13 13 11.056 13 8.66668C13 6.27732 11.056 4.33337 8.66668 4.33337C6.27732 4.33337 4.33337 6.27732 4.33337 8.66668Z" fill="#41C59F"/>
</svg>
