<svg width="50" height="50" viewBox="0 0 50 50" fill="none" xmlns="http://www.w3.org/2000/svg">
<path d="M22.2916 33.34C22.2685 33.0946 22.2306 32.8504 22.1782 32.6089C22.1595 32.5195 22.1346 32.4384 22.1124 32.3534C22.0684 32.1856 22.023 32.0195 21.9607 31.8556C21.9284 31.7662 21.8979 31.6768 21.8622 31.5874C21.7728 31.3634 21.6703 31.1449 21.5552 30.9331C21.5134 30.8572 21.4659 30.7848 21.4205 30.7107C21.3381 30.5751 21.2527 30.443 21.1616 30.3127C21.0988 30.2233 21.0356 30.14 20.9693 30.0572C20.8738 29.9364 20.774 29.8222 20.6711 29.7106C20.6096 29.6439 20.5517 29.5733 20.488 29.5088C20.3284 29.3514 20.1606 29.2023 19.9853 29.0623C19.916 29.0061 19.8428 28.9546 19.7704 28.9019C19.6357 28.8025 19.5023 28.7088 19.358 28.6216C19.29 28.5793 19.2228 28.5374 19.1544 28.4973C18.7245 28.2536 18.2676 28.0614 17.7929 27.924C17.7318 27.907 17.6704 27.8931 17.6089 27.8769C17.4206 27.8285 17.2292 27.7876 17.0365 27.7597C16.9693 27.7501 16.9026 27.7374 16.8346 27.7296C16.5813 27.6969 16.3267 27.6799 16.0712 27.6786C15.5424 27.6794 15.0153 27.7457 14.5026 27.8752C11.7386 28.5854 9.80685 31.0778 9.80859 33.9316C9.8099 36.785 11.7443 39.2753 14.5087 39.9828C14.749 40.0426 14.9927 40.0883 15.2381 40.1206L15.3454 40.1332C15.5551 40.1568 15.7661 40.1699 15.9775 40.1725H16.1641C16.3115 40.1725 16.4562 40.1624 16.5996 40.1498C16.7086 40.1402 16.8185 40.1267 16.9301 40.1106C16.9702 40.1053 17.0103 40.0984 17.05 40.0918C17.6119 40.0003 18.1595 39.8346 18.6783 39.5992L18.7524 39.5634C18.8614 39.5133 18.9704 39.4588 19.0811 39.4008C20.7321 38.4892 21.8848 36.8822 22.2184 35.0259C22.255 34.8088 22.2829 34.593 22.299 34.3767C22.299 34.3035 22.3069 34.2294 22.3095 34.1553C22.3177 33.9482 22.3143 33.742 22.3016 33.5366C22.2973 33.4712 22.2973 33.4054 22.2916 33.34Z" fill="#41C59F"/>
<path fill-rule="evenodd" clip-rule="evenodd" d="M32.1429 35.7143C32.1429 36.2074 31.7431 36.6071 31.25 36.6071H30.2678C29.1591 36.6119 28.1677 37.2973 27.7706 38.3323C27.676 38.5821 27.5735 38.8284 27.4632 39.0704C27.0041 40.084 27.2173 41.2755 27.999 42.0672L28.6974 42.766C28.8648 42.9334 28.959 43.161 28.959 43.3977C28.959 43.6349 28.8648 43.862 28.6974 44.0295L26.1741 46.5528C25.8253 46.9012 25.2603 46.9012 24.9115 46.5528L24.2118 45.8535C23.4205 45.071 22.2286 44.8578 21.2154 45.3177C20.9734 45.4276 20.7267 45.5305 20.4786 45.6251C19.441 46.0209 18.7539 47.0145 18.75 48.1249V49.1071C18.75 49.6002 18.3502 50 17.8571 50H14.2857C13.7926 50 13.3929 49.6002 13.3929 49.1071V48.1249C13.3881 47.0163 12.7027 46.0249 11.6677 45.6277C11.4179 45.5331 11.1716 45.4307 10.9297 45.3204C9.91603 44.8617 8.72454 45.0749 7.93283 45.8562L7.23397 46.5546C7.06656 46.722 6.83899 46.8161 6.60226 46.8161C6.3651 46.8161 6.13796 46.722 5.97055 46.5546L3.44718 44.0312C3.09884 43.6824 3.09884 43.1174 3.44718 42.7686L4.14647 42.0689C4.92815 41.2772 5.14134 40.0857 4.68227 39.0725C4.57241 38.8306 4.46952 38.5838 4.37491 38.3358C3.97906 37.2982 2.98549 36.6111 1.87509 36.6071H0.892857C0.39978 36.6071 0 36.2074 0 35.7143V32.1429C0 31.6498 0.39978 31.25 0.892857 31.25H1.87509C2.98418 31.2448 3.976 30.559 4.3723 29.5231C4.46777 29.2733 4.56979 29.027 4.67965 28.7846C5.13872 27.7714 4.92554 26.5799 4.14385 25.7882L3.44543 25.0894C3.27802 24.922 3.18386 24.6944 3.18386 24.4577C3.18386 24.2205 3.27802 23.9934 3.44543 23.8259L5.9688 21.3043C6.31757 20.956 6.88259 20.956 7.23136 21.3043L7.93108 22.0036C8.72236 22.7862 9.91429 22.9994 10.9275 22.5394C11.1694 22.4296 11.4162 22.3267 11.6643 22.2321C12.7019 21.8362 13.3889 20.8426 13.3929 19.7322V18.75C13.3929 18.2569 13.7926 17.8571 14.2857 17.8571H17.8571C18.3502 17.8571 18.75 18.2569 18.75 18.75V19.7322C18.7548 20.8409 19.4401 21.8323 20.4751 22.2294C20.7249 22.3249 20.9712 22.4269 21.2132 22.5368C22.2268 22.9963 23.4188 22.7836 24.21 22.001L24.9089 21.3026C25.259 20.9564 25.8222 20.9564 26.1723 21.3026L28.6957 23.8259C29.044 24.1747 29.044 24.7397 28.6957 25.0885L27.9964 25.7882C27.2147 26.5799 27.0015 27.7714 27.4606 28.7846C27.5705 29.0266 27.6733 29.2733 27.7679 29.5214C28.1638 30.559 29.1574 31.2461 30.2678 31.25H31.25C31.7431 31.25 32.1429 31.6498 32.1429 32.1429V35.7143ZM24.0752 34.5577C24.0877 34.3973 24.1002 34.2381 24.1002 34.0785C24.1006 34.0555 24.102 34.0331 24.1035 34.0103C24.1053 33.9827 24.1071 33.9546 24.1071 33.9242C24.1071 33.8458 24.102 33.7703 24.097 33.6955C24.0941 33.6527 24.0912 33.61 24.0893 33.5672C24.0805 33.3527 24.0653 33.1395 24.0391 32.9267C24.0108 32.6957 23.9768 32.4716 23.9293 32.2492C23.9023 32.1223 23.8677 31.9967 23.833 31.8706C23.8279 31.8521 23.8227 31.8336 23.8177 31.815C23.768 31.631 23.7117 31.4501 23.6489 31.2714C23.6318 31.2253 23.6156 31.1794 23.5995 31.1336C23.5721 31.056 23.5449 30.9787 23.5134 30.9017C23.3987 30.6157 23.267 30.3367 23.1197 30.0659C23.1138 30.0557 23.1091 30.045 23.1044 30.0343C23.0997 30.0236 23.095 30.013 23.0892 30.0027C22.8568 29.5894 22.5882 29.1975 22.2857 28.8321C22.2707 28.8134 22.2544 28.7953 22.2382 28.7773C22.2265 28.7644 22.2148 28.7515 22.2037 28.7384C22.0803 28.5928 21.9535 28.452 21.8205 28.3168C21.7655 28.2598 21.7084 28.2058 21.6508 28.1513C21.6353 28.1366 21.6198 28.1219 21.6043 28.1071C21.5153 28.0243 21.426 27.9419 21.3366 27.8634C21.2285 27.7701 21.1177 27.679 21.0052 27.5901L20.8588 27.4811C19.4781 26.4452 17.7987 25.885 16.0723 25.885C16.0276 25.885 15.9828 25.8892 15.9381 25.8933C15.8936 25.8974 15.849 25.9016 15.8046 25.9016C15.6141 25.9072 15.4231 25.9177 15.2313 25.9373C15.1302 25.9482 15.0286 25.96 14.9279 25.974C14.6367 26.0123 14.3476 26.0664 14.0625 26.1357C10.5133 27.0543 8.03528 30.2573 8.03659 33.9233C8.03789 37.5894 10.519 40.7902 14.0686 41.7062C14.083 41.7097 14.0982 41.7145 14.1135 41.7145C14.4217 41.7912 14.7343 41.8509 15.0491 41.8928C15.2216 41.9145 15.394 41.9218 15.5672 41.9291C15.6029 41.9306 15.6386 41.9321 15.6743 41.9338C15.7284 41.9367 15.7811 41.9415 15.8338 41.9464C15.9165 41.954 15.9992 41.9617 16.0876 41.9617C16.34 41.9617 16.6081 41.9447 16.8758 41.9181C16.8894 41.9168 16.9023 41.9145 16.9149 41.9123C16.9322 41.9092 16.9487 41.9063 16.9652 41.9063C17.1797 41.8823 17.402 41.8501 17.6261 41.8052C17.679 41.7951 17.7298 41.7828 17.7815 41.7703C17.8149 41.7622 17.8488 41.754 17.8837 41.7463C18.0411 41.7136 18.1972 41.6713 18.3581 41.6242C18.4832 41.5894 18.6018 41.5484 18.7269 41.5C18.7838 41.4779 18.8425 41.4574 18.9007 41.437C18.9701 41.4127 19.0387 41.3887 19.1027 41.3627C19.1978 41.3236 19.2912 41.2799 19.3845 41.2363C19.4067 41.2259 19.4288 41.2156 19.451 41.2053C19.4696 41.1966 19.4882 41.1879 19.5069 41.1792C19.6354 41.1194 19.7657 41.0586 19.8975 40.9886H19.9027C20.7358 40.5422 21.5057 39.9863 22.1911 39.3359C22.3764 39.1628 22.5372 38.9657 22.6698 38.7499C23.3664 37.6334 23.8242 36.3844 24.0143 35.0821C24.0391 34.9099 24.0618 34.7403 24.0749 34.5616L24.0752 34.5577Z" fill="#41C59F"/>
<path d="M49.1068 18.75H46.2988C45.1561 18.7544 44.139 18.0276 43.7728 16.9455C43.5212 16.1957 43.2174 15.4646 42.8629 14.757C42.3529 13.7329 42.5556 12.4969 43.3665 11.6891L45.3575 9.69456C45.7059 9.34623 45.7059 8.78165 45.3575 8.43288L41.5677 4.64303C41.2189 4.29426 40.6539 4.29426 40.3051 4.64303L38.3106 6.63409C37.5027 7.44367 36.2681 7.64683 35.2436 7.1385C34.536 6.78362 33.8044 6.47932 33.0541 6.22777C31.9716 5.86155 31.2449 4.84358 31.2497 3.70091V0.892857C31.2497 0.39978 30.8499 0 30.3568 0H24.9997C24.5066 0 24.1068 0.39978 24.1068 0.892857V3.70091C24.1112 4.84314 23.3844 5.86025 22.3024 6.22689C21.5525 6.47845 20.8214 6.78231 20.1138 7.13675C19.0897 7.64771 17.8533 7.44498 17.0459 6.63321L15.0514 4.64303C14.7026 4.29426 14.1376 4.29426 13.7888 4.64303L9.99986 8.43201C9.65109 8.78078 9.65109 9.34579 9.99986 9.69456L16.3693 16.0714H17.8568H17.9052C18.3547 15.3621 18.8796 14.7034 19.4712 14.107C19.7419 13.8362 20.0262 13.579 20.3231 13.3366C20.4391 13.242 20.5611 13.1579 20.6801 13.0689C20.8659 12.9277 21.049 12.7847 21.2425 12.6552C21.3729 12.5663 21.5102 12.4948 21.6397 12.4141C21.8346 12.2955 22.0264 12.1739 22.2283 12.0671C22.3442 12.0052 22.4641 11.9546 22.5853 11.8966C22.812 11.785 23.0391 11.6743 23.2737 11.5775C23.3631 11.5417 23.4524 11.5143 23.5361 11.4811C23.8043 11.3778 24.0794 11.2776 24.3588 11.1947C24.4042 11.1812 24.4478 11.1725 24.4953 11.159C26.577 10.5543 28.7882 10.5543 30.8704 11.159C30.9157 11.1725 30.9593 11.1812 31.0069 11.1947C31.2863 11.2776 31.5588 11.3778 31.8291 11.4811C31.9185 11.5143 32.0078 11.5417 32.0915 11.5775C32.3265 11.6743 32.5532 11.785 32.7799 11.8966C32.8981 11.9546 33.0175 12.0052 33.137 12.0671C33.3388 12.1739 33.5302 12.2947 33.7238 12.4132C33.8568 12.4948 33.9915 12.5689 34.1227 12.6552C34.3167 12.7847 34.4998 12.9233 34.6847 13.0681C34.8032 13.157 34.9257 13.2403 35.0417 13.3357C35.6351 13.821 36.1787 14.3646 36.6639 14.958C36.7585 15.0739 36.8427 15.1964 36.9316 15.315C37.072 15.4999 37.215 15.683 37.3445 15.877C37.4334 16.0073 37.5049 16.1447 37.5864 16.2759C37.705 16.4695 37.8258 16.6609 37.9326 16.8627C37.9945 16.9787 38.0451 17.0981 38.1031 17.2198C38.2147 17.4465 38.3254 17.6732 38.4222 17.9082C38.4579 17.9975 38.4854 18.0865 38.5185 18.1706C38.6219 18.4383 38.7221 18.7134 38.805 18.9928C38.8185 19.0386 38.8272 19.0822 38.8407 19.1293C39.4454 21.2115 39.4454 23.4227 38.8407 25.5044C38.8272 25.5502 38.8185 25.5938 38.805 25.6409C38.7221 25.9203 38.6267 26.1928 38.5185 26.4635C38.4854 26.5525 38.4579 26.6418 38.4222 26.726C38.3254 26.9605 38.2147 27.1877 38.1031 27.4144C38.0451 27.5321 37.9945 27.652 37.9326 27.7714C37.8258 27.9733 37.7042 28.1651 37.5856 28.36C37.5049 28.4921 37.4308 28.6277 37.3445 28.7572C37.215 28.9507 37.0764 29.1338 36.9308 29.3195C36.8418 29.4377 36.7594 29.5598 36.6631 29.6766C36.4207 29.9735 36.1635 30.2577 35.8927 30.5285C35.2963 31.1201 34.6376 31.645 33.9283 32.0945C33.9283 32.1115 33.9326 32.1267 33.9326 32.1429V33.6304L40.3051 39.9998C40.6535 40.3482 41.218 40.3482 41.5668 39.9998L45.3567 36.2108C45.7054 35.8621 45.7054 35.2971 45.3567 34.9483L43.3656 32.9538C42.5551 32.1463 42.352 30.9108 42.8612 29.8867C43.2161 29.1792 43.5204 28.4476 43.7719 27.6973C44.1381 26.6148 45.1561 25.8881 46.2988 25.8929H49.1068C49.5999 25.8929 49.9997 25.4931 49.9997 25V19.6429C49.9997 19.1498 49.5999 18.75 49.1068 18.75Z" fill="#41C59F"/>
</svg>
