<svg width="20" height="20" viewBox="0 0 20 20" fill="none" xmlns="http://www.w3.org/2000/svg">
<path d="M16.3223 12.7113C15.1545 12.7113 14.1244 13.2629 13.4515 14.1077L7.20954 10.9426C7.29126 10.6404 7.34999 10.3281 7.34999 9.99954C7.34999 9.6418 7.28023 9.30501 7.1829 8.97728L13.3973 5.82679C14.0666 6.70978 15.1232 7.28691 16.3232 7.28691C18.3558 7.28691 20 5.65659 20 3.64301C20 1.63125 18.3558 0 16.3232 0C14.2952 0 12.6491 1.63125 12.6491 3.64297C12.6491 3.97251 12.7079 4.28564 12.7905 4.58876L6.54947 7.75385C5.87561 6.90821 4.84369 6.35475 3.67408 6.35475C1.6433 6.35475 0 7.98688 0 9.99954C0 12.0122 1.64335 13.6434 3.67408 13.6434C4.87582 13.6434 5.93162 13.0645 6.60361 12.1806L12.8152 15.3311C12.7179 15.6579 12.6472 15.9974 12.6472 16.3561C12.6472 18.3688 14.2933 20 16.3213 20C18.3539 20 19.9982 18.3688 19.9982 16.3561C19.9991 14.3416 18.3549 12.7113 16.3223 12.7113Z" fill="#ADADAF"/>
</svg>
